<?xml version="1.0" encoding="utf-8"?>
<!-- Generator: Adobe Illustrator 18.1.1, SVG Export Plug-In . SVG Version: 6.00 Build 0)  -->
<svg version="1.1" xmlns="http://www.w3.org/2000/svg" xmlns:xlink="http://www.w3.org/1999/xlink" x="0px" y="0px"
	 viewBox="0 0 792 612" enable-background="new 0 0 792 612" xml:space="preserve">
<g id="base">
</g>
<g id="Layer_10">
	<path fill="#262665" d="M457.2,292.2c-21.5-17.1-53-16.1-78.4-10.5c-14.8,3.3-28.1,10.2-42.5,14.7c-14.2,4.5-30,6.6-44.8,7
		c-14.9,0.3-28.9-7.9-42.7-12.6c-14.6-4.9-29.6-8.9-44.7-11.7c-15.9-3-33.9-6.8-50.1-5.4c-2.1,0.2-4.2,0.6-6.2,1.3
		c-2.9-3.6-8.5-4.9-11.7-0.7c-19.9,9.6-26.6,35.4-27,56.2c0,2.2,0.7,3.9,1.8,5.1c-0.5,1-0.7,2.1-0.7,3.3c0,2.1,0,4.1,0,6.2
		c0,4.6,5,9.7,9.8,7.6c3.2-1.4,5.7-3.3,7.3-6.2c15.4-8.8,34.2-10.1,51.3-13.5c1.5-0.3,2.7-0.9,3.6-1.7c13.5-0.3,27-0.5,40.4,0.1
		c15.6,0.6,31.1,2.3,46.4,5.9c0.7,2.2,2.2,4.1,4.7,5.1c11.4,4.7,24.7,7.5,37.5,11.4c0.8,0.8,1.9,1.4,3.3,1.8
		c1.1,0.3,2.2,0.7,3.2,1.2c0.7,1.4,1.7,2.6,3,3.6c6.8,5.1,13.4,10.6,19.6,16.5c5.2,4.8,12.5,10.5,16.6,16.7c-0.6,2.2,0,4.7,2.5,6.7
		c0,0,0.1,0.1,0.1,0.1c0.3,1.7,0.6,3.4,1.3,5c1.4,3.3,3.4,6.1,5.6,8.9c4.1,5.2,7.8,11.8,14.2,13.7c0.6,1.6,1.7,3,3.2,3.8
		c9.6,5.3,19.2-1.7,27.9-6c11.5-5.6,23.3-10.9,34.6-17c6.8-3.6,11.4-8.7,13.7-15.4c1.1-0.8,2.1-2,2.7-3.6c3.2-8.2,5-16.7,5.5-25.4
		C476.5,339.2,480.6,310.8,457.2,292.2z"/>
	<path fill="#262665" d="M42.8,415.2c11.8,22.1,41.5,30.3,67.7,32.4c15.3,1.2,31-1.3,46.5-1.4c15.3,0,31.1,2.5,45,6.5
		c14,4,23,15.7,33.6,24c11.2,8.8,23.2,16.8,35.9,23.8c13.3,7.4,28.2,16.1,43.9,19.5c2,0.4,4.2,0.6,6.4,0.6c0.9,4.2,5.6,7,10.6,4
		c23.1-3.1,41.6-25.1,52-44.4c1.1-2,1.3-3.8,0.8-5.3c0.9-0.8,1.7-1.7,2.3-2.8c1-1.9,1.9-3.8,2.9-5.7c2.2-4.2,0-10.4-5.5-9.9
		c-3.7,0.3-6.9,1.4-9.7,3.7c-18.5,3.7-36.6-0.5-54.1-2.3c-1.6-0.2-3,0.1-4.2,0.6c-12.6-3.6-25.2-7.4-37.5-11.7
		c-14.2-5.1-27.8-11.2-40.2-18.9c0.4-2.2-0.1-4.4-2-6.1c-8.3-7.6-19.3-14.1-29.3-21.4c-0.4-1-1.1-1.9-2.2-2.6
		c-0.9-0.6-1.7-1.3-2.4-2c0-1.5-0.3-2.9-1-4.2c-3.9-6.8-7.3-13.7-10.3-21c-2.5-6-6.6-13.4-7.4-20.3c1.6-1.9,2.3-4.4,0.9-6.9
		c0,0,0-0.1-0.1-0.1c0.5-1.7,1.1-3.4,1.2-5c0.3-3.5-0.3-6.6-1-9.9c-1.3-6-1.6-13.2-6.6-16.8c0.2-1.7-0.2-3.3-1.2-4.5
		c-6.4-7.7-18.6-3.9-28.8-2.5c-13.4,1.9-26.8,3.4-40.2,5.8c-8,1.4-14.7,4.8-20.1,10.3c-1.5,0.5-2.9,1.3-4.2,2.6
		c-6.9,6.7-12.7,14-17.2,21.9C47.4,366,30,391.2,42.8,415.2z"/>
	<path fill="#262665" d="M591.8,299.4c-21.5-17.1-53-16.1-78.4-10.5c-14.8,3.3-28.1,10.2-42.5,14.7c-14.2,4.5-30,6.6-44.8,7
		c-14.9,0.3-28.9-7.9-42.7-12.6c-14.6-4.9-29.6-8.9-44.7-11.7c-15.9-3-33.9-6.8-50.1-5.4c-2.1,0.2-4.2,0.6-6.2,1.3
		c-2.9-3.6-8.5-4.9-11.7-0.7c-19.9,9.6-26.6,35.4-27,56.2c0,2.2,0.7,3.9,1.8,5.1c-0.5,1-0.7,2.1-0.7,3.3c0,2.1,0,4.1,0,6.2
		c0,4.6,5,9.7,9.8,7.6c3.2-1.4,5.7-3.3,7.3-6.2c15.4-8.8,34.2-10.1,51.3-13.5c1.5-0.3,2.7-0.9,3.6-1.7c13.5-0.3,27-0.5,40.4,0.1
		c15.6,0.6,31.1,2.3,46.4,5.9c0.7,2.2,2.2,4.1,4.7,5.1c11.4,4.7,24.7,7.5,37.5,11.4c0.8,0.8,1.9,1.4,3.3,1.8
		c1.1,0.3,2.2,0.7,3.2,1.2c0.7,1.4,1.7,2.6,3,3.6c6.8,5.1,13.4,10.6,19.6,16.5c5.2,4.8,12.5,10.5,16.6,16.7c-0.6,2.2,0,4.7,2.5,6.7
		c0,0,0.1,0.1,0.1,0.1c0.3,1.7,0.6,3.4,1.3,5c1.4,3.3,3.4,6.1,5.6,8.9c4.1,5.2,7.8,11.8,14.2,13.7c0.6,1.6,1.7,3,3.2,3.8
		c9.6,5.3,19.2-1.7,27.9-6c11.5-5.6,23.3-10.9,34.6-17c6.8-3.6,11.4-8.7,13.7-15.4c1.1-0.8,2.1-2,2.7-3.6c3.2-8.2,5-16.7,5.5-25.4
		C611.1,346.4,615.2,318,591.8,299.4z"/>
	<path fill="#262665" d="M177.4,410.4c11.8,22.1,41.5,30.3,67.7,32.4c15.3,1.2,31-1.3,46.5-1.4c15.3,0,31.1,2.5,45,6.5
		c14,4,23,15.7,33.6,24c11.2,8.8,23.2,16.8,35.9,23.8c13.3,7.4,28.2,16.1,43.9,19.5c2,0.4,4.2,0.6,6.4,0.6c0.9,4.2,5.6,7,10.6,4
		c23.1-3.1,41.6-25.1,52-44.4c1.1-2,1.3-3.8,0.8-5.3c0.9-0.8,1.7-1.7,2.3-2.8c1-1.9,1.9-3.8,2.9-5.7c2.2-4.2,0-10.4-5.5-9.9
		c-3.7,0.3-6.9,1.4-9.7,3.7c-18.5,3.7-36.6-0.5-54.1-2.3c-1.6-0.2-3,0.1-4.2,0.6c-12.6-3.6-25.2-7.4-37.5-11.7
		c-14.2-5.1-27.8-11.2-40.2-18.9c0.4-2.2-0.1-4.4-2-6.1c-8.3-7.6-19.3-14.1-29.3-21.4c-0.4-1-1.1-1.9-2.2-2.6
		c-0.9-0.6-1.7-1.3-2.4-2c0-1.5-0.3-2.9-1-4.2c-3.9-6.8-7.3-13.7-10.3-21c-2.5-6-6.6-13.4-7.4-20.3c1.6-1.9,2.3-4.4,0.9-6.9
		c0,0,0-0.1-0.1-0.1c0.5-1.7,1.1-3.4,1.2-5c0.3-3.5-0.3-6.6-1-9.9c-1.3-6-1.6-13.2-6.6-16.8c0.2-1.7-0.2-3.3-1.2-4.5
		c-6.4-7.7-18.6-3.9-28.8-2.5c-13.4,1.9-26.8,3.4-40.2,5.8c-8,1.4-14.7,4.8-20.1,10.3c-1.5,0.5-2.9,1.3-4.2,2.6
		c-6.9,6.7-12.7,14-17.2,21.9C182,361.3,164.6,386.5,177.4,410.4z"/>
	<path fill="#262665" d="M379.1,508.9c20.2-18.1,16.3-42.4,6.9-61.5c-5.4-11.2-15.4-20.9-22.4-31.7c-6.9-10.6-11-22.7-12.7-34.1
		c-1.6-11.5,7.7-23,12.6-34.1c5.1-11.7,8.9-23.6,11.3-35.6c2.5-12.5,5.9-26.8,2.7-39.2c-0.4-1.6-1.2-3.2-2.2-4.7
		c4.4-2.5,5.5-7-0.1-9.1c-14-14.6-47.6-17.6-74.4-16.2c-2.8,0.1-4.9,0.8-6.4,1.8c-1.3-0.3-2.8-0.4-4.3-0.3c-2.6,0.2-5.3,0.4-7.9,0.6
		c-5.9,0.4-12,4.7-8.9,8.3c2,2.4,4.8,4.1,8.6,5.1c12.5,11.2,15.8,25.6,21.5,38.6c0.5,1.2,1.4,2,2.5,2.6c1.5,10.4,2.8,20.8,3.3,31.3
		c0.5,12.2-0.4,24.3-3.7,36.4c-2.7,0.7-5,2-6.2,4.1c-5.1,9.2-7.6,19.7-11.5,29.9c-1,0.7-1.7,1.6-2.1,2.7c-0.3,0.9-0.7,1.7-1.2,2.6
		c-1.7,0.6-3.2,1.5-4.4,2.6c-6,5.7-12.5,11.2-19.5,16.6c-5.8,4.4-12.4,10.6-20.1,14.2c-2.9-0.3-6,0.4-8.4,2.5c0,0-0.1,0.1-0.1,0.1
		c-2.2,0.4-4.4,0.8-6.3,1.4c-4.2,1.3-7.5,3.2-10.9,5.1c-6.4,3.6-14.5,7-16.3,12.1c-2,0.6-3.7,1.6-4.7,2.8c-6,7.9,3.8,14.7,10,21.1
		c8.2,8.4,16,17.1,24.7,25.4c5.2,4.9,12.1,8.1,20.9,9.3c1.2,0.8,2.8,1.4,4.8,1.8c10.8,1.8,21.8,2.5,33,2.1
		C320.4,527.7,357.2,528.5,379.1,508.9z"/>
</g>
<g id="Layer_9">
	<path fill="#E66525" d="M588.8,340.5c8-6.6,14.4-14.5,17.2-24.6c2.2-7.9,2.3-16.1,1.6-24.2c-0.1-0.9-0.2-1.8-0.3-2.7
		c-2.4-2.1-4.8-4.3-7.1-6.4c-1.9-3.8-4.1-7.4-6.7-10.5c-2.8-6.9-7.4-13.1-12.6-18.8c-4-2.3-7.3-5.5-10.4-9.5
		c-2.8-3.6-5.4-7.3-6.4-11.8c-1-4.1-0.7-8.4-1.3-12.6c-0.2-1.3,0.1-2.4,0.6-3.4c-0.2-0.2-0.3-0.3-0.5-0.5
		c-5.2-5.2-9.3-10.5-12.2-17.4c-2.9-7-4.4-14.3-5.3-21.7c-7.4-9.2-13.5-19.5-20.7-28.9c-4.5-5.9-8.5-12.2-12.9-18.1
		c-1.9-2.5-3.9-4.9-5.4-7.7c-1.3-2.4-2.4-6-4.7-7.7c-1.2-0.9-1.9-2.1-2.1-3.4c-1-0.7-2-1.3-3.1-1.9c-3.3-4.7-7.9-8-13.1-10.5
		C475.2,91,465.7,84,454.3,85c-0.8,0.1-1.6,0.3-2.3,0.6c-20-12.5-41.2-23.1-64.4-28.1c-18.9-4.1-38.4-4.1-57.6-4
		c-17,0-33.6,1-49.4,7c-12,0.9-23.8,2.6-35.2,5.6c-1.5-2.4-3.8-4.6-6.1-6.3c-20.8-15.6-51-3.4-55.8,21.9c-0.2,1.2-0.1,2.6,0.3,3.8
		c-1.4,0.7-2.6,1.7-3.4,3c-0.2,0-0.3,0-0.5,0.1c-7.9,1.7-14.6,5.6-20.9,10.2c-6.6,3-13.3,5.8-20.1,8.7c-9.8,4.2-17.9,9.5-22.6,19
		c-14.6,6.9-25.3,21.5-36.1,32.9c-1.7,1.8-2.3,3.8-2.2,5.6c-3.2,2.7-5.4,6.4-6.2,10.7c0,0.1,0,0.2,0,0.3c-1.6,1.2-3.2,2.5-4.5,3.8
		c-5.1,5-8,11.2-10.6,17.8c0,0.1,0,0.2-0.1,0.3c-0.9,0.4-1.7,0.8-2.5,1.3c-0.1,5.4-3.2,11.4-6.1,15.3c-0.4,0.6-1,1.1-1.5,1.4
		c-2.2,3.7-3.8,7.9-5,12.3c-2.8,10-5.4,20-8.7,29.9c-0.2,4.5-1.1,8.9-2.3,13.3c-0.9,3-1.4,6-1.8,9.1c0.7,5.8,1,11.6-0.3,17.3
		c-0.4,1.6-1.1,3.6-2,5.8c1.6,0.7,2.9,2.1,3,4.4c0.2,4.3,0.2,9.1-0.9,13.4c-0.5,5.3-1,10.5-1.2,15.8c1.6,0.4,2.9,1.7,3.5,3.4
		c2.1,5.7,0,10.4-4.2,14.1c-1.2,4.5-3.7,8.6-6.6,12.4c3.1,2.9,8.9,3.6,12.3-0.8c2.2-2.9,2.1-4.9,6.1-5.3c3.7-0.3,7.5-0.1,11.2-0.1
		c7.9-0.1,15.8-0.3,23.7-0.3c3.8,0,4.5-0.1,6.3,2.9c1.5,2.2,2.2,4.4,4.5,6c5.1,3.6,11.7,2.3,16.1-1.7c4.8-4.3,8.3-10.4,12.7-15.1
		c0.5-0.5,1-1,1.5-1.5c-1.2,2.3-2.2,4.7-2.7,7.3c-0.8,3.7,1.1,8.4,5.2,9.2c3.2,0.6,6.5,1.2,9.7,1.8c1.2,2.2,3.3,3.5,6.4,3.9
		c2.3,0.3,4.6,0.2,6.7-0.1c29.4,3.4,56-4.2,82.5-17.7c13.6-6.9,27-14.3,41.3-19.9c0.6-0.2,1.1-0.4,1.7-0.7c6.7-1.4,13.5-3.1,20.1-5
		c4.2-1.2,13.5-3.3,20.7-6.9c1.1,0.6,2.5,1,4.2,0.8c0.6-0.1,1.3-0.2,2-0.3c0,0,0,0,0,0c0,0,0.1,0,0.1-0.1c3.2-0.6,7-2,10.4-4
		c7.5-2.8,15.2-5.2,23.1-6.2c10.1-1.3,19.6-0.8,29.1-4.9c0.6,0.4,1.1,0.7,1.8,1c4.8,2.1,10.4,1.2,15.4,1.1
		c7.7-0.2,15.4-0.2,23.1-0.1c15.9,0.2,31.8,1,47.7,2.3c1.7,0.1,3.4,0.3,5.1,0.4c13.3,4.1,26.6,8.6,40.3,9.1c1.8,2.1,4.1,3.8,6.7,5.1
		c6.7,3.5,14.5,2.8,21.3,5.9c6.7,3,11.3,7,18.8,8.1c1.8,0.3,3.8,0.4,5.9,0.5c4.3,6.6,10.5,8.4,17.6,11c7.1,2.6,11.8,8.6,20,5.7
		c1.9-0.7,4-1.6,6.2-2.7c-2.6,0.2-5-1.6-5.4-4.6c-1.1-1.2-1.6-2.8-1.2-4.5c-1.4,0.7-2.9,1.3-4.5,1.7
		C589.2,349.9,584.7,343.8,588.8,340.5z"/>
</g>
<g id="Layer_8">
	<path fill="#262665" d="M300.5,391.8c-0.1-6.7-9.9-11-13.8-3.8c-8.2,15.1-9.7,32.8-3.4,48.9c1.9,4.8,6.2,6.5,10.9,4.5
		c6.2-2.7,8.6-9.1,9.5-15.4c1.3-8.9,1.6-18.1,2.4-27.1C306.6,394.6,303.8,392.3,300.5,391.8z"/>
	<path fill="#262665" d="M450.4,389c2.9-8.7-9.9-12.6-13.8-5.2c-3.2,0.3-6.2,1.8-8.1,4.7c-2.6,3.9-2.3,9.4-2.5,13.9
		c-0.3,6.1-0.2,12.2,0.1,18.3c0.1,2.3,1.1,4.1,2.5,5.3c-0.2,7.1,0.7,13.9,5.9,19.4c3.2,3.5,9.4,2.6,11.7-1.5
		c4.7-8.4,4.6-17.6,4.8-26.9c0.2-7.5,2.2-18.3-1.4-25.7C449.9,390.5,450.2,389.8,450.4,389z"/>
	<path fill="#262665" d="M416,323.8c-0.1-0.2-0.1-0.4-0.2-0.6c-0.2-1.5-0.5-2.9-0.9-4.4c-1.6-6.3-4.1-14-9.6-17.8
		c-1-0.7-1.6-1.9-1.4-3.2c0.2-1.7-0.3-3.6-1.6-5.8c-3.3-5.5-8.8-4.2-14.1-3.1c-7.3,1.4-14.5,2.8-21.8,4c-7.5,1.2-15.1,1.9-22.7,2.3
		c-7,0.4-14,3.3-20.9,3.2c-9.6-0.1-9.6,14.8,0,14.9c1.7,0,3.3-0.2,4.9-0.4c1.3-0.2,2.6,0.3,3.3,1.3c0.1,0.2,0.3,0.3,0.4,0.5
		c1.1,1.4,2.8,2.6,4.8,3.7c0.1,0.3,0.3,0.6,0.5,0.8c0.4,0.5,0.8,1,1.2,1.5c0,0,0,0,0,0c0,0,0,0,0.1,0.1c2.8,3.6,5.6,7.1,8.6,10.6
		c0.7,0.8,1.7,1.4,2.8,1.8c0.9,0.3,1.6,0.9,2,1.8c1.8,4,3.3,8,4.1,12.2c0.1,0.5,0.1,1-0.1,1.5c-0.1,0.2-0.1,0.4-0.2,0.6
		c-0.5,2.1-0.3,3.9,0.5,5.3c0.3,0.5,0.4,1.1,0.4,1.7c0,0.4-0.1,0.7-0.1,1.1c-0.5,5.2-1.1,10.1-1.2,15.3c0,4.2,0.7,9.8-3.4,12.3
		c-8.3,5-1,17,7.5,12.9c2.9-1.4,6.5-1.2,9.5-2.3c2.8-1.1,5.2-2.6,7.6-4.4c1.1-0.9,2.2-1.8,3.2-2.7c0.5-0.5,1.2-0.7,1.9-0.8
		c0.2,0,0.4-0.1,0.5-0.1c7.9-1.8,13.1-5,18.6-10.9c6.3-6.7,13.3-13.4,16.6-22.2C421,344.1,419.6,333.7,416,323.8z"/>
	<path fill="#262665" d="M564.4,333.5c-3.3-3.5-8.7-6.4-13.1-8.1c-6.9-2.7-13.9-5.2-20.6-8.4c-5.7-2.7-13.3-7.6-20-6.5
		c-1-0.5-2.7-2.5-4-2.5c-0.2,0,0.5-2.7-1.5-0.4c-0.6-3.1-3.9-1.5-8-1.5c-9.6,0-9.6,14.9,0,14.9c0.2,0,0.5,0,0.7,0
		c0.3,1.2,0.8,2.4,1.6,3.4c0.6,7.2,7.4,14.6,10.5,20.3c11.5,21.1,22.1,50.9,9.8,73.7c-1.5,2.7-3.5,4-2.3,6c-1,0.9-1,3.9,0.2,4.7
		c-9.5,0.1-9.4,14.9,0.1,14.9c3.7,0,6-2.2,6.8-5c3.8,0,6-2.4,6.8-5.3c2.1-0.9,3.4-2.6,3.9-4.6c1.1-0.3,14.7-14.5,15.6-15.7
		c14.1-18.3,16.7-24.1,20.1-47.8C572.6,354.8,571.7,341.4,564.4,333.5z"/>
	<path fill="#262665" d="M164.4,352.1c-4.4,4.3-15.2,2-20.5,1.1c-5.8-1-15-1.9-19-6.8c-0.9-2.6-3.2-4.6-6.7-4.6
		c-2.5,0-4.3,1-5.5,2.5c-2.4,2.1-3.4,5.4-1.2,8.9c0.3,0.4,0.5,0.8,0.8,1.1c-6.1,4.1-9.7,9.1-9.5,16.9c0.3,9.2,2.1,18.7,3.6,27.8
		c0.6,3.9,1.3,7.6,2.8,11.2c1.6,3.9,4.3,6.9,5.4,11c0.9,3.4,1.2,6.4,3.5,9.3c2.5,3.1,6.1,4,9.1,6.4c3.4,2.8,7.2,2.4,9.8,0.4
		c2.6,1.9,5.8,3.1,8.6,5.2c7.3,5.8,17.6-3.7,10.5-10.5c-2.3-2.3-6-5.8-10.1-8.9c-0.3-3,0.8-7.1,1.5-9.7c2.3-8.3,6.1-16,7.9-24.5
		c0.4-1.9,0-3.7-0.9-5.2c0.6-0.8,1.2-1.6,1.8-2.3c7.1-8.2,18.2-9.8,20.7-21.9C178.3,352.3,169.9,346.7,164.4,352.1z"/>
</g>
<g id="Layer_7">
	<path fill="#FFCD5A" d="M612.7,383.9c-0.4-1.7-0.7-5.9-1.9-6.8c-0.4-6.9-7.3-13.3-9.9-19.7c-1.2-3-4.1-4.8-6.9-5
		c-0.8-2.5-1.7-4.9-2.8-7.3c-1.4-2.8-4.5-3.6-7.2-3.3c-0.2-1.1-0.7-2.1-1.3-2.9c-1.1-2-3-3.4-6-3.4c-1.6,0-2.9,0.4-3.9,1.1
		c-1.9,1-3.2,3-3,6c0,0.1,0,0.2,0,0.2c0,0.7,0.1,1.4,0.3,2.1c0.5,2.3,1.4,4.3,2.4,6.2c-1.3,0.9-0.6,6.2-0.7,7.9
		c-1,19.3-12.3,40.8-28.5,57.4c-1.2,1.2-1.5,3.2-2.1,4.9c-4.7,1.3-9,4.9-12.6,8.1c-4.7,4.2-10.3,6.1-16.2,7.3
		c5-10.5,5.2-4.4,12.8-35.4c1.6-1.1-2.1-3-1.9-5.5c0.2-1.7,3.9-3.5,3.8-5.1c0.1-7.6,3.2-15.6-1.2-22.8c-1.4-2.2-0.3-7.4-2.3-8.7
		c-0.2-3.5-2.9-7.9-4.2-11.3c-1.4-3.5-2.3-5.1-2.8-8.8c0-0.6-3.9-3.1-3.9-3.7c-0.2-3.7-0.7-4.6-3.5-5.3c-0.3-2.8-2.5-2.7-3.7-5.3
		c-4.1-8.8-12.6-15.5-20.4-20.8c-9.7-6.5-22.5-7.9-33.6-10.7c-10.9-2.7-19.9,0.4-33.8-1.6c-1.1-1.2-6.1-2-8.3-2
		c-7.2,0-7.2,3.3-3.1,7.1c0.6,1,1.4,1.8,2.7,2.4c-0.3,1.5-0.1,3.2,1,4.9c2.9,4.6,5.8,8,6.4,13.4c0.6,5.2,2.3,10,3.3,15.1
		c2.3,11.3-5.6,17.2-9.2,26.7c-0.1,0.4-0.3,0.7-0.4,1.1c-1.4,0.5-2.7,1.5-3.5,3.5c-2.6,6.2-8.4,8.2-14.3,10.7
		c-5.9,2.5-10.6,5.6-15.8,9.3c-3,2.1-6.1,3.8-9.4,4.9c-3.4-0.6-3.2,3.6-8.4,1.9c-0.6-0.2-3-1-3.4-0.6c-3.5-0.6-0.1-2.2-3.6-2.2
		c1.3-4.3,0.3-8.5,1.6-12.6c2.3-7.1,3.3-14.6,2.9-22.1c-0.5-8.7-5.3-16-7.8-24.3c-1-3.5-6.3-9.3-8.9-9.4c-2.7-3.8-5.7-4-9.4-7.1
		c-3.6-3.1-7.7-6.6-12.6-7.3c-0.8-1.1-2.2-1.9-4.1-2.2c-10.7-1.5-20.1,2.4-30,6c-10.2,3.6-20.9,6.1-30.4,11.5
		c-18.1,10.2-39.8,15.9-58.7,25.7c-7.5,3.9-14.9,8.5-21,14.4c-6.6,6.4-10.7,14.1-14.3,22.3c-1.5,0.5-2.9,1.4-3.9,3.1
		c-2.8,5-4.6,10.4-4.7,16.1c0,0.8,0,1.6,0.1,2.4c-2.8,9.7-3.5,19.5,3.5,22.8c0.1,1,0.5,2,1.2,3c1.5,1.9,2.6,4.1,3.3,6.3
		c-4-0.9-8.1-1.2-12.4-1.9c-7.5-1.1-14-3.9-20.7-7.2c-2.2-1.1,0.2-1.3-2.2-1.1c5,0.7-0.9-1.5-1.1-1.5c0-0.1-1.5-1.2-1.6-1.3
		c-0.1-0.8-2.8,0.4-3-0.4c-1.3-5-1.9-10.5-6.6-11.3c-1.2-3.8-5.5-5.3-6.8-8.7c-4.3-12-2.5-25-3-37.6c6.8-2.1,6.1-13.9-2.2-13.9
		c-0.2,0-0.3,0-0.5,0c-3.2-7.2-9.1-14.1-15.8-15.7c-10-2.4-25.6-4.4-32.9,4.5c-0.1,0.1-0.1,0.2-0.2,0.3c-0.2,0-0.3,0.1-0.5,0.1
		c-6.5,1-9.9,4.3-14.2,9.2c-5.3,6.1-11.7,12.7-13.5,20.4c-0.5,0.4-0.9,1-1.3,1.6c-5.7,9.8-6.2,24-7.4,35.2
		c-0.6,5.1-1.3,12.4,0.2,18.1c-2.4,3-2.7,7.9,1.5,10.6c-2,2-2.8,5-0.8,8.1c6.2,10,13.6,19,22.4,26.8c0.9,1.7,2.2,3,3.7,4
		c2,2.4,4.2,4.6,7.2,6.6c7.3,5,16.2,9.6,25,10.7c10.2,1.3,20-2.5,30.1-2.4c3.7,0,6-2.4,6.7-5.2c3.3-0.8,6.4-1.8,8.9-4
		c1.5-1.3,1.3,1.6,2.2-0.2c-0.1,3.3,3-2.1,3.3-2.5c1.1,0.2-0.4,1.3,0.8,1.3c6.9-7.6,29.9,23.6,49.7,34.7c1.5,0.9,11.5,6.2,13,7
		c1.2,1,8,4.3,9.3,5.3c4.7,3.5,10.9,5.5,16.3,7.8c1,0.5,6,3,7,3.5c12,5.3,12.1,7.1,23.1,9.2c0.8,1.3,8.4,4.6,10.2,5.3
		c4.9,1.7,10.2,2.3,15.8,3c11,4.3,15,3.5,23.8,5.8c18.8,4.8,29.8,4,49.3,4.5c18.9,0.5,9.1,3.1,27.8,0c1.1-0.2,19.9,0.2,21,0
		c0.8,0.7,7.8-0.2,9,0c3.6,0.5,7-1,10.5-2.2c2-0.7,5.5,0.6,7.3-0.5c2.2-0.6,5.8,0.6,8,0c4.3-1.1,4.4,2,7.8-1.3
		c0.2-0.2,4.5-1.3,4.8-1.5c1.1,0.3,14.5-2,15.8-2.3c16.9-3.7,15,0.5,30-7.8c4.5-2.5,10.5-2.6,14.4-6c3-2,8.4-2.7,11.3-4.8
		c6.5-4.7,14.9-4.3,19.4-11.1c0.3-0.5,4.4-1.3,7.6-5.4c2.5-2.1,4.4-5.8,6.5-8.4c1.7-2.1,5-4.3,6.5-6.5c1.4-0.3,4.6-4.8,5.9-5.1
		c0-0.2,3.6,0.7,1.8-2.9c-2.2-4.5,0.3-3.8,3.9-7.3c3.9-3.8-0.8-5.9,4.1-5.2c1.8-1-1.4-3.8,0.7-4.2c-0.4-0.6-0.8-1.1-1.3-1.5
		c4-1,7.8-3.1,10.5-5.9c1.4-0.5,2.8-1,4.2-1.7c6.1-2.9,12.8-3.2,15.9-9c1.1-0.7,4-5,5.1-5.8c1.9-0.5,2.7-2.8,3.5-4.9
		c2.7-2.7,1.8-5.7,3.1-9.1c3.7-9.9,8.3-19,9.7-29.4C617.2,404.7,615.3,394,612.7,383.9z M284.3,421.3c-0.8,1.1-0.7-3.2-1.8-3
		c-1.3-4.6,0.5-1.4-1.8-5.3c1.8-2.8,1.3-5.3,1.5-8.8c0.4-5.6-3.2-4.9-2.3-10.5c0.8-4.6-1.9-0.8,0.8-4.6c0.3-0.5-0.6-7.4-0.5-7.7
		c1.3,0,3.7-2.4,5-2.3c2.6,0.2,1.4-7,4-6.8c2,0.1,3.1,5.5,5.3,5.5c0.6,6.5-8.9,10.8-5.5,16.6c0.3,1.5,1.8,4.7,2,6.3
		C284.4,418.3,291,412.5,284.3,421.3z M436.6,426.3c-1.1,0.4-4.7,3.1-5.7,3.7c-2.5-2.9-1.5-5.8-3-9.2c-3.2-7.3-3.3-6.1-3.3-13.9
		c0-8.6-2.9-6.7,0-14.8c0.2-0.7,1.3-4.4,1.3-5.1c0.4-0.4,1.1-2.6,1.5-3.1c1.4,0.7,1.5-6.5,3.3-6.4c5.2,0.3,6-7.3,9.3-2.3
		c2.7,4.2-1,11.3,1,15.8c0.9,2,2.7,8.7,4,10.3C443.7,413.7,449.4,421.7,436.6,426.3z"/>
	<path fill="#FFCD5A" d="M779.7,496.7c-1.6-11.3-6.7-21.7-8.7-32.9c0.5-1.9,1-3.9,1.5-5.8c0.3-1.5,0.6-3.1,0.8-4.6
		c0.3-0.7,0.4-1.6,0.2-2.5c0.5-7.2-1-14.1-5.9-19.5c-2.7-3.5-6.5-6.2-10.4-8.2c-7.1-3.7-14.6-6.2-22.4-7.6c-3.2-1.5-6.5-2.9-9.7-4.2
		c-4.3-1.8-8.8-4.2-13.5-5.3c0.1-1,0.3-2,0.4-3.1l1.3-10.5c0.9-0.8,1.6-2,1.7-3.5c0.1-2.2,0.3-4.4,0.4-6.6c1.8-2.5,3.7-5,5.2-7.6
		c1.7-1.9,3.5-3.8,5.3-5.6c2.4-2.4,1.6-5.4-0.3-7.2c0.7-3.6,1.1-7.2,1.1-10.8c0.1-6.3-0.7-12.6-1.6-18.7c-0.8-4.9-3.2-8.4-8.3-9.5
		c-8.9-1.9-15.7,3.5-20.8,10.1c-2.8-0.7-5.1,1.7-5.5,4.5c-0.3,0.3-0.5,0.6-0.7,0.9c-8.4,13.8-15.7,28.3-21.8,43.3
		c-2.2-0.7-4.7-0.2-5.7,2.2c-0.2,0.4-0.3,0.7-0.4,1.1c-3.9,1.9-6.2,5.7-7.8,10.2c-1.4,3.9-2.6,8-3.8,12
		c-5.8,5.9-12.5,11.3-17.3,16.9c-8.4,9.9-14.7,22.1-14.5,34.9c-3.8,6.8-5,15.3-4.7,23.4c0.1,4,0.3,8.1,1.1,12
		c0.6,3.5,1.5,7,2.8,10.3c0.1,0.2,0.1,0.4,0.2,0.5c-0.7,2.2-0.2,4.9,2.3,6.2c-0.7,5.8,1.1,11.8,5.1,16.6c0.4,0.4,0.8,0.8,1.3,1
		c1.3,3.6,2.7,7.1,4.2,10.6c0,0.1,0.1,0.2,0.1,0.3c0.4,2.5,1.1,5,1.9,7.5c-0.5,8.5,0,18.4,5.9,24.6c0.1,0.1,0.3,0.3,0.4,0.4
		c0,1.8,0.1,3.7,0.6,5.5c3.4,11.6,17.6,11.8,26.7,7.6c6.7-0.3,13.4-1.3,19.8-3.1c3.8,2.4,8.8,2.7,13.5,2.7c3.8,1.7,7.8,2.8,11.9,3.5
		c1.6,3.5,6.9,5.6,8.9,1.1c0-0.1,0.1-0.2,0.1-0.2c8.8,0.4,18.9,0.7,27-2.6c0.2-0.1,0.3-0.2,0.5-0.2c3-0.3,5.9-1,8.4-2.7
		c12.2-8,11.7-26.4,11.2-39.1c0-0.9-0.3-1.7-0.7-2.4c0.6-3.1,1-6.2,1.4-9.3c1.6,0.1,3.2-0.6,4.1-2.5c2.3-4.5,2.3-9.4,1.8-14.4
		c0.4-0.9,0.8-1.9,1.2-2.8c1-0.9,1.6-2.2,1.6-3.7c0.1-0.2,0.2-0.5,0.3-0.7c-0.1-0.1-0.2-0.1-0.4-0.2c0,0,0,0,0-0.1
		c0.1,0.1,0.2,0.2,0.4,0.3c0.3-0.8,0.5-1.5,0.5-2.2C779.6,504.1,780.3,500.7,779.7,496.7z M697.8,492.8c-0.2,0.9-0.3,1.9-0.5,2.8
		c0-0.7,0.1-1.5,0.1-2.2c0.1-0.3,0.3-0.6,0.4-0.9C697.8,492.6,697.8,492.7,697.8,492.8z"/>
</g>
<g id="god">
	<path fill="none" stroke="#262665" stroke-width="8.5" stroke-linecap="round" stroke-miterlimit="10" d="M32.9,349.5
		c-2.9-13.3-5.2-30.5-4.3-50.7c1.2-27.9,8.1-50.5,14.3-65.7c6.4-16,14.8-41.7,35.7-69.8c7-9.4,18.7-24.9,38.5-40.4
		c12.9-10.1,25-16.8,34.2-21.9c13.9-7.7,26.2-13.2,35.7-17.1c10.6-4.5,22.5-8.9,35.7-13c12.1-3.8,23.6-6.7,34.2-8.9
		c16.3-3.3,35.2-6.2,56.3-7.5c17.8-1.1,34.2-1,48.7-0.2c10.8,1.6,24.6,4.3,40.4,9.1c19.7,6,32.8,13.3,47.1,19.2
		c28.4,11.7,45.9,27,55.6,37c9.4,9.6,16.3,19.1,21.4,27.4c8.5,13.1,17.5,29.1,25.7,47.9c8.1,18.6,13.4,35.8,17.1,50.7
		c-5.8-4.2-12.7-8.7-20.5-13.2c0,0-13.2-7.5-26.6-12.8c-31.3-12.5-67.7-13.6-75.6-13.7c-27-0.5-46.6,3.4-77,9.6
		c-20.7,4.2-38.8,9-54.2,13.7c-57.3,17.5-96.7,39.2-106.2,44.5c-8.9,5-17.3,10.2-34.2,20.5c-28.1,17.2-35.7,22.9-40.6,26.7
		c-12.2,9.5-21.7,18.7-28.5,26l-6,4.9"/>
	<path fill="none" stroke="#262665" stroke-width="8.5" stroke-linecap="round" stroke-miterlimit="10" d="M187.9,82.2
		c0-4.9,0.8-10.9,6.2-17.5c10.5-13.1,32.5-15.4,45.2-6.8c3.7,2.5,4.7,3.6,5.9,5.4"/>
	<path fill="none" stroke="#262665" stroke-width="8.5" stroke-linecap="round" stroke-miterlimit="10" d="M115.2,339
		c5.8,4.3,15.2,10.1,28,12.8c2,0.4,9.6,1.9,19.5,1.4c8.2-0.4,15.1-2.1,20-3.7c12.7-3.8,26.3-8.5,40.4-14.2c8.9-3.6,17.3-7.2,25.2-11
		c14.4-6.4,31.5-12.8,50.9-18.3c15.7-4.4,30.5-7.5,43.7-9.6c13.7-2.7,30-5,48.5-5.5c25.7-0.7,47.8,2,65.1,5.5
		c15.7,3.5,31.4,7,47.1,10.5c11.2,3.1,24.2,7.5,38,13.7c13.2,5.9,24.4,12.3,33.8,18.3c2.9,0.4,12.5,1.3,20.4-4.6c5-3.7,7-8.5,9-13.2
		c1.8-4.3,4.3-12,3.8-22.4c-0.1-3.4-0.7-8.3-2.9-13.7c-1.4-3.6-3.2-6.5-4.8-8.7c-3.5-4.5-7.6-9.3-12.4-14.2
		c-6.7-6.9-13.4-12.4-19.5-16.9c-0.6-0.8-1.2-1.6-1.8-2.5"/>
	<path fill="none" stroke="#262665" stroke-width="8.5" stroke-linecap="round" stroke-miterlimit="10" d="M105.9,360.5
		c-1.4-2.5-3.4-6.4-9.3-11.9c-4.3-3.9-8.6-6.7-12.1-8.5c-1.4-0.7-2.9-1.3-4.5-1.7c-4-1-9.8-1.9-16.7-1.2c-9,1-15.7,4.4-19.4,6.7
		c-0.6,0.4-1.2,0.8-1.7,1.2c-3.1,2.4-6.3,4.9-9.4,7.3c-1.5,1.2-2.9,2.6-4,4.2c-3.2,4.7-6.7,10.5-9.7,17.6c-2.9,7-4.7,13.4-5.7,18.7
		c-1.6,7.2-3.1,18-1.4,31c1.9,14.8,7.1,26.1,10.9,32.9c3.2,5.1,8.8,12.7,18.1,19.6c7.9,5.9,15.5,9.1,20.9,11
		c6,1.8,15.5,3.8,27.1,3.2c10.4-0.5,18.7-2.9,24.2-5c7-3,13.9-8.7,16.1-11.1"/>
	<path fill="none" stroke="#262665" stroke-width="8.5" stroke-linecap="round" stroke-miterlimit="10" d="M583.2,339.1
		c0.6,0.4,1.2,0.8,1.7,1.2c3.1,2.4,6.3,4.9,9.4,7.3c1.5,1.2,2.9,2.6,4,4.2c3.2,4.7,6.7,10.5,9.7,17.6c2.9,7,4.7,13.4,5.7,18.7
		c1.6,7.2,3.1,18,1.4,31c-1.9,14.8-7.1,26.1-10.9,32.9c-3.2,5.1-8.8,12.7-18.1,19.6c-7.9,5.9-15.5,9.1-20.9,11c-2.9,0.9,4.4-0.6,0,0
		"/>
	<g>
		<path fill="none" stroke="#262665" stroke-width="8.5" stroke-linecap="round" stroke-miterlimit="10" d="M572,380.7
			c11-1.2,18.5,10.6,18.1,28.4"/>
	</g>
	<path fill="none" stroke="#262665" stroke-width="8.5" stroke-linecap="round" stroke-miterlimit="10" d="M565.8,383.9
		c1.3,4.9-3.3,18.9-1.7,34.1c0.7,6.5,2.9,16.7,4.3,22.6c0.8,3.3,1.1,6.8,1.1,10.2c0,0.1,0,0.2,0,0.3c-0.2,21-6.8,41.5-19.4,57.3
		c-3.3,4.2-7,8-11,11.1c-27.2,21.1-46.9,26.9-83.6,36.4c-11.6,3-47.2,7.3-89.9,8.8c-27.2,1-68.1-0.7-113.4-15
		c-32.9-10.3-55.4-23.3-66.9-30c-12-7-24.1-14.1-37.1-26.2c-9.2-8.6-29.8-27.8-29.8-39.3"/>
	
		<ellipse fill="#262665" stroke="#262665" stroke-width="8.5" stroke-linecap="round" stroke-miterlimit="10" cx="287.3" cy="396.7" rx="14.3" ry="30"/>
	
		<ellipse fill="#262665" stroke="#262665" stroke-width="8.5" stroke-linecap="round" stroke-miterlimit="10" cx="436.6" cy="402.4" rx="14.3" ry="30"/>
	<path fill="none" stroke="#262665" stroke-width="8.5" stroke-linecap="round" stroke-miterlimit="10" d="M310,303.3
		c0.4,0.2,0.8,0.4,1.3,0.6c15.1,7.3,27.7,13.4,34.9,22.1c11.3,13.6,9.4,33.2,8.8,39.9c-1.4,15.1-7.2,20.6-3.8,24.2
		c6.1,6.4,31.2-3.9,47.8-17.8c8-6.7,19-15.9,21.6-31.5c2.7-15.6-4.6-28.2-6.9-32c-0.5-0.9-6.6-10.7-17.6-17.8"/>
	<path fill="none" stroke="#262665" stroke-width="8.5" stroke-linecap="round" stroke-miterlimit="10" d="M482.5,302.6
		c13.3,7.8,20.4,18.3,27.5,28.7c3,4.5,7.8,11.5,11.6,21.8c2.6,7,8.3,22.8,5.1,41.5c-1.2,7.2-4.3,18-7.2,26.6
		c-3.5,10.2-5.5,13.7-4,14.9c3.4,2.7,20.9-9.6,33-23.5c2.2-2.5,12.3-14.4,18.8-32.5c2.7-7.5,4.8-13.3,4.7-21.4
		c-0.1-7.6-2.1-14-5.4-24.6"/>
	<path fill="none" stroke="#262665" stroke-width="8.5" stroke-linecap="round" stroke-miterlimit="10" d="M116.9,340.1
		c-6.6,7-10.2,18-10.9,20.3c-3.7,11.6-3.2,21.8-2.4,27.8c1,7.1,3.2,22.9,17.1,35.4c10.6,9.5,22.2,11.7,32.3,13.7
		c2.9,0.6,10.3,1.9,11.2,0c1.2-2.6-11.3-6.4-15.9-16.9c-3.8-8.8-0.4-17.9,3.6-28.3c1.5-4,5.9-14.4,15.7-25.3
		c10.7-11.9,22.6-18.6,30.9-22.4"/>
	<path fill="none" stroke="#262665" stroke-width="8.5" stroke-linecap="round" stroke-miterlimit="10" d="M133.5,174.1
		c8.2-15,22-36.3,44.9-58.2"/>
	<path fill="none" stroke="#262665" stroke-width="8.5" stroke-linecap="round" stroke-miterlimit="10" d="M102.9,285.1
		c2-16.8,6.3-39.9,15.7-66.4"/>
	<path fill="none" stroke="#262665" stroke-width="8.5" stroke-linecap="round" stroke-miterlimit="10" d="M428.9,452.8
		c-8.1,7.9-13.6,20.5-13.6,34.2c0,16.3,8.1,28.5,18.8,33.8"/>
	<path fill="none" stroke="#262665" stroke-width="8.5" stroke-linecap="round" stroke-miterlimit="10" d="M302.8,451.3
		c8.1,7.9,13.6,20.5,13.6,34.2c0,16.3-8.1,28.5-18.8,33.8"/>
	<path fill="none" stroke="#262665" stroke-width="8.5" stroke-linecap="round" stroke-miterlimit="10" d="M316.3,489.2
		c6.4,12.9,54.4,19.4,82.8,11.6c6-1.7,13.4-6,16.2-11.6"/>
	<g>
		<path fill="none" stroke="#262665" stroke-width="8.5" stroke-linecap="round" stroke-miterlimit="10" d="M87.9,391.6
			c-3.1-10.6-10.7-18.6-19-19.5c-11.9-1.3-26.7,11.9-26.2,31.9"/>
	</g>
	<g id="Layer_5">
		<path fill="none" stroke="#262665" stroke-width="8.5" stroke-linecap="round" stroke-miterlimit="10" d="M687.8,414
			c12.6-8.9,14.5-7.7,21.5-5.7c19.1,5.5,37.8,9.2,55.4,18.3c2.6,1.3,5.2,2.8,7,5.1c5.8,7.3,0.9,17.8,0.5,27.1
			c-0.5,12.7,8.1,24.3,8.9,37c0.9,15.6-10,29.5-12.4,45c-1.1,6.8-0.4,13.8-0.9,20.7c-0.5,6.9-2.3,14.1-7.2,19
			c-2.8,2.8-6.5,4.6-10.2,6c-21.2,8.3-46.1,6.6-65.9-4.6c-5-2.8-9.7-6.2-13.3-10.7c-2-2.6-3.6-5.4-5.1-8.3
			c-12-23.1-19.4-48.7-21.5-74.7c-0.7-8-0.8-16.2,1.3-23.9c2.7-9.9,9-18.5,15.2-26.7c3.8-5,7.7-10.2,13-13.6
			C680,420.3,678,421,687.8,414z"/>
		<path fill="none" stroke="#262665" stroke-width="8.5" stroke-linecap="round" stroke-miterlimit="10" d="M684.5,581.9l-7.3,2.5
			c-5.7,1.9-11.6,3-17.6,2.9c-6.4-0.2-12.5-1.6-17-5.6c-6.9-6.1-7.3-16-8.8-24.8c-4.5-27-22.4-51.8-21-79.2
			c1.3-24.4,17.5-45.9,32.1-66.5c15-21.2,28.8-43.2,40.5-66c3.3-6.3,6.5-13,12.3-17.6c5.7-4.6,14.7-6.6,20.9-2.6
			c5.9,3.9,7,11.5,7.5,18.2c0.5,6.5,1,13-0.1,19.4c-1.3,7.3-4.2,14.4-8.2,20.8c-7.4,11.5-2.9,14.4-8.3,25.1"/>
	</g>
</g>
<g id="Layer_4">
</g>
<g id="Layer_6">
</g>
</svg>
