<?xml version="1.0" encoding="utf-8"?>
<!-- Generator: Adobe Illustrator 18.1.1, SVG Export Plug-In . SVG Version: 6.00 Build 0)  -->
<svg version="1.1" xmlns="http://www.w3.org/2000/svg" xmlns:xlink="http://www.w3.org/1999/xlink" x="0px" y="0px"
	 viewBox="0 0 792 612" enable-background="new 0 0 792 612" xml:space="preserve">
<g id="base">
</g>
<g id="Layer_10">
	<path fill="#262665" d="M561.5,276.9c-23-20.7-56.8-19.5-83.9-12.7c-15.8,4-30.1,12.3-45.5,17.8c-15.2,5.4-32.1,8-48,8.4
		c-16,0.4-30.9-9.5-45.7-15.2c-15.6-6-31.6-10.7-47.9-14.2c-17-3.6-36.3-8.2-53.6-6.5c-2.2,0.2-4.5,0.8-6.6,1.6
		c-3.1-4.3-9.1-5.9-12.6-0.8c-21.3,11.6-28.5,42.8-28.9,68c0,2.6,0.7,4.7,1.9,6.2c-0.5,1.2-0.8,2.5-0.8,4c0,2.5,0,5,0.1,7.5
		c0,5.5,5.4,11.7,10.5,9.2c3.5-1.7,6.1-4,7.8-7.5c16.5-10.6,36.6-12.3,54.9-16.3c1.6-0.4,2.9-1.1,3.9-2.1
		c14.4-0.3,28.9-0.6,43.3,0.1c16.8,0.7,33.3,2.8,49.6,7.2c0.7,2.6,2.4,4.9,5.1,6.2c12.2,5.7,26.4,9.1,40.1,13.8c0.9,1,2,1.7,3.5,2.2
		c1.2,0.4,2.3,0.9,3.4,1.4c0.7,1.7,1.8,3.2,3.2,4.4c7.3,6.2,14.3,12.9,21,19.9c5.5,5.8,13.4,12.7,17.8,20.2c-0.6,2.7,0,5.7,2.6,8.1
		c0,0,0.1,0.1,0.1,0.1c0.4,2.1,0.7,4.2,1.4,6.1c1.5,4,3.7,7.3,6,10.7c4.4,6.3,8.4,14.3,15.2,16.5c0.7,1.9,1.8,3.6,3.5,4.6
		c10.3,6.4,20.5-2.1,29.9-7.2c12.3-6.8,24.9-13.2,37-20.6c7.3-4.4,12.2-10.5,14.6-18.6c1.2-1,2.2-2.5,2.9-4.4
		c3.5-9.9,5.4-20.2,5.9-30.7C582.1,333.8,586.5,299.4,561.5,276.9z"/>
	<path fill="#262665" d="M117.8,425.7c12.6,26.7,44.4,36.6,72.5,39.2c16.4,1.5,33.2-1.6,49.8-1.6c16.4,0,33.2,3,48.1,7.9
		c15,4.9,24.6,18.9,36,29c12,10.7,24.8,20.3,38.4,28.8c14.2,8.9,30.2,19.5,47,23.6c2.1,0.5,4.5,0.7,6.8,0.7c1,5,6,8.4,11.3,4.9
		c24.7-3.8,44.6-30.4,55.7-53.7c1.2-2.4,1.3-4.6,0.9-6.4c1-1,1.8-2.1,2.4-3.4c1-2.3,2.1-4.6,3.1-6.9c2.3-5.1,0-12.6-5.9-12
		c-3.9,0.4-7.4,1.7-10.4,4.4c-19.8,4.5-39.1-0.6-57.9-2.8c-1.7-0.2-3.2,0.1-4.5,0.7c-13.5-4.4-27-8.9-40.1-14.2
		c-15.2-6.1-29.7-13.5-43-22.9c0.4-2.7-0.1-5.4-2.1-7.4c-8.9-9.2-20.6-17.1-31.4-25.9c-0.4-1.2-1.2-2.3-2.3-3.2
		c-0.9-0.7-1.8-1.6-2.6-2.4c0-1.8-0.3-3.5-1.1-5.1c-4.1-8.2-7.8-16.6-11.1-25.4c-2.7-7.2-7.1-16.2-7.9-24.6c1.7-2.3,2.4-5.3,1-8.4
		c0-0.1,0-0.1-0.1-0.2c0.6-2,1.1-4.1,1.3-6.1c0.4-4.2-0.3-8-1-11.9c-1.4-7.3-1.7-16-7.1-20.3c0.2-2-0.2-4-1.2-5.4
		c-6.8-9.3-19.9-4.8-30.8-3c-14.3,2.3-28.7,4.1-43.1,7c-8.6,1.7-15.8,5.8-21.5,12.5c-1.6,0.6-3.1,1.6-4.5,3.1
		c-7.4,8.1-13.6,17-18.5,26.6C122.8,366.2,104.2,396.7,117.8,425.7z"/>
	<path fill="#262665" d="M705.6,285.7c-23-20.7-56.8-19.5-83.9-12.7c-15.8,4-30.1,12.3-45.5,17.8c-15.2,5.4-32.1,8-48,8.4
		c-16,0.4-30.9-9.5-45.7-15.2c-15.6-6-31.6-10.7-47.9-14.2c-17-3.6-36.3-8.2-53.6-6.5c-2.2,0.2-4.5,0.8-6.6,1.6
		c-3.1-4.3-9.1-5.9-12.6-0.8c-21.3,11.6-28.5,42.8-28.9,68c0,2.6,0.7,4.7,1.9,6.2c-0.5,1.2-0.8,2.5-0.8,4c0,2.5,0,5,0.1,7.5
		c0,5.5,5.4,11.7,10.5,9.2c3.5-1.7,6.1-4,7.8-7.5c16.5-10.6,36.6-12.3,54.9-16.3c1.6-0.4,2.9-1.1,3.9-2.1
		c14.4-0.3,28.9-0.6,43.3,0.1c16.8,0.7,33.3,2.8,49.6,7.2c0.7,2.6,2.4,4.9,5.1,6.2c12.2,5.7,26.4,9.1,40.1,13.8c0.9,1,2,1.7,3.5,2.2
		c1.2,0.4,2.3,0.9,3.4,1.4c0.7,1.7,1.8,3.2,3.2,4.4c7.3,6.2,14.3,12.9,21,19.9c5.5,5.8,13.4,12.7,17.8,20.2c-0.6,2.7,0,5.7,2.6,8.1
		c0,0,0.1,0.1,0.1,0.1c0.3,2.1,0.7,4.2,1.4,6.1c1.5,4,3.7,7.3,6,10.7c4.4,6.3,8.4,14.3,15.2,16.5c0.7,1.9,1.8,3.6,3.5,4.6
		c10.3,6.4,20.5-2.1,29.9-7.2c12.3-6.8,24.9-13.2,37-20.6c7.3-4.4,12.2-10.5,14.6-18.6c1.2-1,2.2-2.5,2.9-4.4
		c3.5-9.9,5.4-20.2,5.9-30.7C726.2,342.5,730.6,308.2,705.6,285.7z"/>
	<path fill="#262665" d="M261.9,420c12.6,26.7,44.4,36.6,72.5,39.2c16.4,1.5,33.2-1.6,49.8-1.6c16.4,0,33.2,3,48.1,7.9
		c15,4.9,24.6,18.9,36,29c12,10.7,24.8,20.3,38.4,28.8c14.2,8.9,30.2,19.5,47,23.6c2.1,0.5,4.5,0.7,6.8,0.7c1,5,6,8.4,11.3,4.9
		c24.7-3.8,44.6-30.4,55.7-53.7c1.2-2.4,1.3-4.6,0.9-6.4c1-1,1.8-2.1,2.4-3.4c1-2.3,2.1-4.6,3.1-6.9c2.3-5.1,0-12.6-5.9-12
		c-3.9,0.4-7.4,1.7-10.4,4.4c-19.8,4.5-39.1-0.6-57.9-2.8c-1.7-0.2-3.2,0.1-4.5,0.7c-13.5-4.4-27-8.9-40.1-14.2
		c-15.2-6.1-29.7-13.5-43-22.9c0.4-2.7-0.1-5.4-2.1-7.4c-8.9-9.2-20.6-17.1-31.4-25.9c-0.4-1.2-1.2-2.3-2.3-3.2
		c-0.9-0.7-1.8-1.6-2.6-2.4c0-1.8-0.3-3.5-1.1-5.1c-4.1-8.2-7.8-16.6-11.1-25.4c-2.7-7.2-7.1-16.2-7.9-24.6c1.7-2.3,2.4-5.3,1-8.4
		c0-0.1,0-0.1-0.1-0.2c0.6-2,1.1-4.1,1.3-6.1c0.4-4.2-0.3-8-1-11.9c-1.4-7.3-1.7-16-7.1-20.3c0.2-2-0.2-4-1.2-5.4
		c-6.8-9.3-19.9-4.8-30.8-3c-14.3,2.3-28.7,4.1-43.1,7c-8.6,1.7-15.8,5.8-21.5,12.5c-1.6,0.6-3.1,1.6-4.5,3.1
		c-7.4,8.1-13.6,17-18.5,26.6C266.9,360.5,248.3,390.9,261.9,420z"/>
	<path fill="#262665" d="M477.9,539.1c21.6-21.9,17.4-51.3,7.4-74.4c-5.8-13.5-16.5-25.3-24-38.3c-7.4-12.8-11.8-27.5-13.5-41.3
		c-1.8-13.9,8.3-27.8,13.4-41.3c5.5-14.2,9.5-28.6,12.1-43c2.7-15.2,6.3-32.4,2.9-47.5c-0.4-1.9-1.2-3.8-2.4-5.7
		c4.7-3,5.9-8.5-0.1-11.1c-14.9-17.7-51-21.3-79.6-19.6c-3,0.2-5.3,1-6.9,2.2c-1.4-0.3-3-0.5-4.6-0.4c-2.8,0.2-5.6,0.4-8.5,0.7
		c-6.3,0.5-12.8,5.7-9.6,10c2.2,2.9,5.1,5,9.2,6.2c13.4,13.5,17,31,23,46.7c0.5,1.4,1.5,2.5,2.7,3.2c1.6,12.6,3,25.2,3.5,37.9
		c0.6,14.7-0.4,29.4-4,44c-2.9,0.9-5.4,2.5-6.6,5c-5.4,11.1-8.2,23.9-12.3,36.2c-1,0.9-1.8,1.9-2.2,3.2c-0.3,1.1-0.8,2.1-1.3,3.1
		c-1.8,0.8-3.5,1.8-4.7,3.2c-6.5,6.9-13.4,13.6-20.9,20c-6.2,5.3-13.3,12.8-21.5,17.2c-3.1-0.3-6.5,0.5-9,3c0,0-0.1,0.1-0.1,0.1
		c-2.3,0.5-4.7,0.9-6.8,1.7c-4.5,1.6-8,3.8-11.7,6.2c-6.8,4.4-15.5,8.5-17.5,14.7c-2.2,0.7-4,1.9-5,3.4c-6.4,9.5,4.1,17.8,10.7,25.5
		c8.8,10.2,17.1,20.7,26.4,30.7c5.6,6,12.9,9.8,22.4,11.3c1.3,1,3,1.7,5.2,2.2c11.5,2.2,23.4,3.1,35.3,2.6
		C415,561.8,454.4,562.8,477.9,539.1z"/>
</g>
<g id="Layer_9">
	<path fill="#E66525" d="M703.3,344.7c0.3-2.7,2.1-5,5-5c1.4,0,2.9,0.7,3.8,1.8c-1.2-2-1.2-4.4,1.1-6.2c5.1-3.9,9.5-8.2,13.1-13.1
		c-0.5-5.2,0.3-10.5,1-15.5c0.6-4,1.4-8.1,2.6-12c-2.5-6.3-4.8-12.7-5.9-19.3c-4.7-5.1-9.6-9.9-15-14.5c-5-4.2-9.4-9.1-14.1-13.6
		c-2-1.9-3.8-3.6-5.1-5.5c-1.1-0.6-2.1-1.3-3-2.2c-3.4-3.2-4.2-7.6-4.2-12.1c0-0.2,0-0.3,0-0.5c-1.7-3.7-3.6-7.3-5.5-11
		c-3.7-7.2-4.6-14.1-4.8-21.7c-5.7-8-10.9-16.3-15.4-25c-3.6-7.1-5.9-14.7-8.3-22.2c-0.2-0.5-0.3-1-0.5-1.5
		c-5.9-9.5-11.3-19.4-16.1-29.4c-4.2-2.4-8.2-5.2-11.7-8.4c-4.7-4.2-9.4-11.6-8.6-18c-8.4-6.1-17.1-11.7-25.9-17.3
		c-1.2-0.8-1.9-1.8-2.2-2.9c-6.6-3.2-13.3-7.1-18.1-12.5c-3.9-1.7-7.9-3-12.2-3.6c-2.2-0.3-3.6-1.7-4.3-3.3
		c-22.6-13-46.3-24-72.3-29.2c-22.2-4.5-45.1-4.5-67.8-4.5c-19.9,0.1-39.5,1.1-58.1,7.7c-14.1,1-28,2.9-41.4,6.2
		c-1.8-2.7-4.5-5.1-7.2-7c-18.6-13.2-43.6-8.5-57,6.8c-0.6,6.6-0.2,13.4-2.4,19.9c-1.2,3.5-4.9,4.1-7.5,2.8c-1,0.7-1.8,1.5-2.4,2.4
		c-0.2,0-0.4,0-0.6,0.1c-9.3,1.9-17.1,6.3-24.6,11.4c-7.8,3.3-15.7,6.5-23.6,9.7c-8,3.2-15.1,7.1-20.5,12.7c1.1,1.8,1.3,4.1-0.5,6.1
		c-13.6,15.5-28.9,29.3-43.7,43.7c-1.2,1.1-2.5,1.5-3.7,1.4c-7.2,7.7-11.7,17.3-16.4,26.7c-2.8,5.6-5.4,11.3-8,17
		c-1.3,2.7-2.6,5-4.3,7.4c-1.1,1.6-3,3.6-3.1,5.7c-0.1,1.6-0.7,2.8-1.7,3.7c-1.2,3.2-2.4,6.3-3.7,9.5c-3.3,8.3-5.7,16.9-8.9,25.1
		c-2,5-4.4,9.8-6.3,14.7c-0.2,4.9-0.4,9.8-0.6,14.7c-0.3,6.8-0.7,13.5-2.2,20.1c-1.2,5.3-2.7,10.6-3.9,15.9
		c0.2,13.2,4,26.3,3.4,39.6c0.5,0.5,0.9,1.2,1,2c1,5.3,1.7,11.4,1,16.8c0.8-0.7,1.9-1.1,3.8-1.3c4.3-0.4,8.8-0.1,13.1-0.1
		c9.3-0.1,18.6-0.4,27.9-0.3c4.4,0,5.2-0.1,7.5,3.2c1.7,2.5,2.6,4.9,5.3,6.7c6,4,13.7,2.5,19-1.9c5.7-4.7,9.7-11.5,15-16.7
		c0.6-0.5,1.1-1.1,1.7-1.6c-1.4,2.6-2.5,5.2-3.2,8.1c-0.9,4.1,1.2,9.3,6.1,10.2c3.8,0.7,7.6,1.3,11.4,2c1.4,2.4,3.9,3.9,7.5,4.3
		c2.8,0.3,5.4,0.3,7.9-0.1c34.5,3.7,65.9-4.7,97-19.6c16-7.7,31.7-15.9,48.5-22.1c0.7-0.2,1.3-0.5,2-0.7c7.9-1.6,15.8-3.4,23.6-5.6
		c5-1.4,15.8-3.7,24.3-7.6c1.3,0.7,2.9,1.1,4.9,0.9c0.7-0.1,1.5-0.2,2.3-0.3c0,0,0,0,0,0c0.1,0,0.1,0,0.2-0.1
		c3.7-0.7,8.3-2.2,12.2-4.4c8.8-3.1,17.9-5.8,27.2-6.9c11.9-1.5,23.1-0.9,34.2-5.4c0.7,0.4,1.3,0.8,2.1,1.1
		c5.6,2.4,12.2,1.4,18.1,1.3c9.1-0.2,18.1-0.2,27.2-0.1c18.7,0.2,37.4,1.1,56,2.6c2,0.2,4,0.3,6,0.4c15.6,4.5,31.3,9.5,47.4,10.1
		c2.2,2.3,4.8,4.2,7.9,5.7c7.9,3.9,17.1,3.1,25,6.6c7.9,3.4,13.2,7.7,22.1,9c2.1,0.3,4.5,0.4,6.9,0.6c5,7.4,12.3,9.3,20.7,12.2
		c1.4,0.5,2.7,1.1,4,1.7C703.9,349.3,703.1,347.1,703.3,344.7z"/>
</g>
<g id="Layer_8">
	<path fill="#262665" d="M506.3,326.3c-0.1-0.2-0.1-0.4-0.2-0.7c-0.3-1.7-0.6-3.4-1-5c-1.8-7.2-4.6-15.9-10.8-20.2
		c-1.2-0.8-1.8-2.2-1.6-3.6c0.2-1.9-0.3-4.1-1.8-6.6c-3.7-6.3-9.9-4.8-15.9-3.6c-8.2,1.6-16.3,3.2-24.6,4.5
		c-8.5,1.3-16.9,2.2-25.5,2.7c-7.9,0.5-15.8,3.7-23.5,3.6c-10.8-0.1-10.8,16.8,0,16.9c1.9,0,3.7-0.2,5.5-0.5
		c1.4-0.2,2.9,0.3,3.7,1.5c0.1,0.2,0.3,0.4,0.4,0.6c1.3,1.6,3.2,3,5.4,4.3c0.2,0.3,0.3,0.7,0.6,1c0.4,0.6,0.9,1.1,1.3,1.7
		c0,0,0,0,0,0c0,0,0,0,0.1,0.1c3.1,4.1,6.3,8.1,9.7,12c0.8,1,1.9,1.6,3.1,2c1,0.3,1.8,1.1,2.2,2c2,4.5,3.7,9.1,4.6,13.9
		c0.1,0.6,0.1,1.2-0.1,1.8c-0.1,0.2-0.1,0.5-0.2,0.7c-0.6,2.4-0.3,4.4,0.5,6.1c0.3,0.6,0.5,1.3,0.4,2c0,0.4-3,0.9-3.2,1.2
		c-4.4,5.9-1.4,7.3-2.3,15.4c-0.7,5.8,4.9,13.3,0.3,16.1c-9.4,5.7-1.2,19.3,8.5,14.6c3.3-1.6,7.3-1.3,10.7-2.6c3.2-1.2,5.9-3,8.5-5
		c1.3-1,2.5-2,3.6-3.1c0.6-0.5,1.4-0.9,2.2-1c0.2,0,0.4-0.1,0.6-0.1c8.9-2,14.8-5.7,20.9-12.4c7.1-7.7,14.9-15.2,18.7-25.2
		C511.8,349.4,510.3,337.5,506.3,326.3z"/>
	<path fill="#262665" d="M682.6,342.8c-3.3-3.5-13.9-9.5-18.3-11.3c-6.9-2.7-9.6-6.1-16.3-9.3c-5.7-2.7-15.5-7.8-22.3-6.8
		c-1-0.5-3.7-3.3-5-3.3c-0.2,0-0.3-5.3-2.3-3c-0.6-3.1-9.4,0.7-13.3-0.5c-22.7-6.8-6.1,12.5,2.4,20.6c0.2,0.2,0.5,0,0.7,0
		c0.3,1.2,0.8,2.4,1.6,3.4c0.6,7.2,7.4,14.6,10.5,20.3c11.5,21.1,22.1,50.9,9.8,73.7c-1.5,2.7-3.5,4-2.3,6c-1,0.9-1,3.9,0.2,4.7
		c-9.5,0.1-9.4,14.9,0.1,14.9c3.7,0,6-2.2,6.8-5c3.8,0,6-2.4,6.8-5.3c2.1-0.9,3.4-2.6,3.9-4.6c1.1-0.3,14.7-14.5,15.6-15.7
		c14.1-18.3,16.7-24.1,20.1-47.8C683.1,363.2,689.8,350.6,682.6,342.8z"/>
	<path fill="#262665" d="M213.7,359.7c-5,4.9-17.1,2.2-23.1,1.2c-6.5-1.1-16.9-2.1-21.4-7.6c-1-2.9-3.6-5.2-7.6-5.2
		c-2.8,0-4.9,1.1-6.2,2.8c-2.7,2.3-3.9,6.1-1.4,10c0.3,0.4,0.6,0.8,0.9,1.3c-6.9,4.6-11,10.3-10.7,19c0.3,10.4,2.4,21.1,4.1,31.3
		c0.7,4.3,1.4,8.6,3.1,12.6c1.9,4.4,4.9,7.8,6.1,12.4c1,3.9,1.3,7.2,4,10.5c2.8,3.5,6.9,4.5,10.3,7.2c3.9,3.1,8.2,2.7,11,0.4
		c3,2.1,6.6,3.5,9.6,5.9c8.2,6.5,19.9-4.2,11.9-11.9c-2.6-2.5-2.7-7.3-7.3-10.8c-0.4-3.4-3.2-7.3-2.4-10.2
		c2.6-9.4,6.9-18.1,8.9-27.7c0.4-2.2,0-4.2-1-5.9c0.7-0.9,1.3-1.8,2-2.6c8-9.3,20.5-11.1,23.3-24.7
		C229.3,359.9,219.9,353.6,213.7,359.7z"/>
</g>
<g id="Layer_7">
	<path fill="#FFCD5A" d="M729.6,399.4c-0.5-2-0.8-6.8-2.2-7.8c-0.3-5.9-4.9-11.6-8.4-17.2c-0.4-2.6-0.9-5.2-1.6-7.7
		c-0.6-2.1-2.3-5-2.7-7.3c0-0.3-0.1-0.7-0.1-1c-0.1-0.4-0.2-0.8-0.3-1.2c-1.3-0.5-2.6-1.1-3.9-1.7c-0.9-0.5-1.8-1.1-2.6-1.7
		c-0.7,0.2-1.4,0.6-1.9,1.1c-1.1-1.2-2.3-2.2-3.6-3.1c-1.8-1.2-4-1.8-6.1-2.4c-0.3-0.7-0.6-1.3-1-1.8c-1.2-2.3-3.5-3.9-6.8-3.9
		c-1.8,0-3.3,0.5-4.5,1.3c-2.2,1.2-3.7,3.5-3.4,6.8c0,0.1,0,0.2,0,0.3c0,0.8,0.2,1.6,0.4,2.4c0.6,2.7,1.6,5,2.8,7.1
		c-1.5,1-0.7,7.1-0.8,9.1c-1.1,22.1-14.1,46.8-32.8,65.9c-1.4,1.4-1.7,3.7-2.4,5.6c-5.4,1.5-10.3,5.6-14.5,9.3
		c-5.4,4.8-11.9,7-18.6,8.3c5.7-12.1,6-5,14.7-40.7c1.8-1.3-2.4-3.5-2.2-6.3c0.2-1.9,4.5-4,4.4-5.9c0.1-8.7,3.7-17.9-1.4-26.2
		c-1.6-2.5-0.4-8.5-2.6-9.9c-0.2-4-3.3-9.1-4.8-13c-1.6-4-2.7-5.8-3.2-10.1c0-0.7-4.5-3.6-4.5-4.2c-0.3-4.3-0.9-5.3-4-6.1
		c-0.3-3.3-2.9-3.1-4.3-6.1c-4.7-10.1-14.4-17.8-23.4-23.8c-11.1-7.5-25.8-9.1-38.6-12.2c-12.6-3.1-22.9,0.5-38.8-1.9
		c-1.3-1.3-7-2.3-9.5-2.3c-8.2,0-8.3,3.8-3.6,8.1c0.6,1.1,1.7,2.1,3.1,2.7c-0.4,1.7-0.1,3.7,1.1,5.6c3.3,5.2,14.5,8.8,15.1,15
		c0.6,6-2.3,17.6-1.1,23.4c2.6,13-9.3,14.1-13.5,25c-0.2,0.4-0.3,0.8-0.4,1.3c-1.7,0.5-3.1,1.8-4.1,4c-3,7.1-9.7,9.4-16.4,12.3
		c-6.7,2.8-12.2,6.5-18.1,10.7c-3.4,2.4-7,4.3-10.8,5.6c-3.9-0.7-3.6,4.2-9.6,2.2c-0.7-0.2-3.4-1.2-4-0.6c-4-0.7-0.2-2.5-4.1-2.5
		c1.5-4.9,0.4-9.8,1.9-14.5c2.6-8.2,3.8-16.8,3.3-25.4c-0.6-10-6.1-18.4-9-27.9c-1.2-4-7.2-10.7-10.3-10.7
		c-3.1-4.4-6.6-4.5-10.7-8.1c-4.2-3.6-8.9-7.5-14.4-8.4c-1-1.3-2.5-2.2-4.7-2.5c-12.3-1.7-23,2.8-34.5,6.9c-11.7,4.2-24,7-34.9,13.2
		c-20.8,11.7-45.7,18.3-67.4,29.5c-8.6,4.5-17.1,9.8-24.1,16.5c-7.6,7.3-12.3,16.1-16.5,25.6c-1.8,0.5-3.4,1.7-4.5,3.6
		c-3.3,5.7-5.3,11.9-5.3,18.5c0,0.9,0,1.8,0.1,2.8c-3.2,11.1-4.1,22.4,4,26.2c0.1,1.1,0.6,2.3,1.4,3.4c1.7,2.2,3,4.7,3.8,7.3
		c-4.6-1-9.3-1.4-14.2-2.2c-8.6-1.3-16-4.5-23.8-8.3c-1.1-0.5-1.2-0.9-1.2-1.1c3.1,0.2-2.4-1.9-2.6-1.9c-0.1-0.2-1.7-1.3-1.8-1.5
		c-0.1-0.9-3.2,0.4-3.4-0.5c-1.5-5.8-2.2-12.1-7.6-13c-1.4-4.4-6.4-6.1-7.8-10c-5-13.8-2.9-28.7-3.4-43.2c7.8-2.4,7-15.9-2.6-15.9
		c-0.2,0-0.4,0-0.6,0c-3.7-8.2-10.5-16.2-18.2-18.1c-11.4-2.8-29.4-5.1-37.8,5.1c-0.1,0.1-0.1,0.2-0.2,0.3c-0.2,0-0.4,0.1-0.5,0.1
		c-7.5,1.2-11.4,4.9-16.3,10.6c-6,7-13.4,14.5-15.4,23.4c-0.5,0.5-1,1.1-1.4,1.8c-6.5,11.3-7.2,27.6-8.5,40.4
		c-0.6,5.9-1.5,14.2,0.3,20.7c-2.8,3.5-3.1,9.1,1.7,12.1c-2.3,2.2-3.2,5.7-1,9.4c7.1,11.5,15.6,21.8,25.7,30.8
		c1,1.9,2.5,3.4,4.3,4.6c2.3,2.7,5.9,3.5,9.3,5.8c8.4,5.7,19,7.2,29.2,8.5c11.7,1.5,21.5,2.7,33.2,2.8c4.2,0,6.9-2.7,7.7-6
		c3.8-0.9,7.4-2.1,10.2-4.6c1.7-1.5,1.4,1.8,2.5-0.2c-0.1,3.8,3.5-2.4,3.7-2.9c1.2,0.2-0.5,1.5,0.9,1.5c8-8.7,34.3,27.1,57.1,39.8
		c1.8,1,13.1,7.1,14.9,8c1.4,1.2,9.2,4.9,10.6,6c5.4,4.1,12.5,6.4,18.7,8.9c1.1,0.6,6.9,3.5,8,4c13.8,6,13.9,8.1,26.5,10.6
		c0.9,1.5,9.7,5.3,11.7,6.1c1.4,0.5,2.8,0.9,4.2,1.2c1-1.9,3-3.2,5.6-2.6c37.7,8.9,76.2,12.7,114.8,14.1c8.5-5.3,19.7-3.7,29.2-4.4
		c14-1.1,28-2.2,42.1-2.6c6.1-0.2,12.1-0.4,18.2-0.6c4.5-2.3,9.7-3.4,14.3-4.5c11.2-2.6,22.1-4.6,33.5-5.8
		c5.3-0.6,10.6-1.3,15.9-2.1c1.2-0.6,2.4-1.3,3.5-2.2c3.5-2.3,9.6-3.1,13-5.5c0,0,0.1,0,0.1-0.1c4.5-4.8,10.2-8.6,15.6-11.9
		c5.8-3.6,11.8-6.6,17.9-9.7c1.8-2.3,3.3-4.9,5-7c1.9-2.4,5.7-5,7.5-7.5c1.6-0.4,5.2-5.5,6.8-5.9c0-0.2,4.1,0.8,2-3.3
		c-2.6-5.1,0.4-4.4,4.5-8.4c4.5-4.4-1-6.8,4.7-6c2.1-1.1-1.6-4.4,0.8-4.9c-0.4-0.6-0.9-1.2-1.5-1.7c4.6-1.2,8.9-3.5,12.1-6.8
		c1.6-0.6,3.2-1.2,4.8-2c7-3.3,14.7-3.7,18.2-10.4c1.2-0.8,4.6-5.7,5.8-6.6c2.2-0.6,3.1-3.2,4.1-5.6c3.1-3.1,2.1-6.6,3.5-10.4
		c4.3-11.3,9.6-21.8,11.1-33.8C734.7,423.3,732.6,410.9,729.6,399.4z"/>
</g>
<g id="god">
	<g id="Layer_5">
	</g>
</g>
<g id="Layer_4">
	<path fill="none" stroke="#262665" stroke-width="9.5" stroke-linecap="round" stroke-miterlimit="10" d="M65.7,356.9
		c-3.3-15.3-5.9-35.1-4.9-58.3c1.4-32.1,9.4-58,16.4-75.6c7.4-18.4,17-48,41-80.3c8-10.8,21.5-28.6,44.3-46.5
		c14.9-11.6,28.7-19.3,39.4-25.2c15.9-8.8,30.1-15.2,41-19.7c12.2-5.2,25.9-10.3,41-15c14-4.3,27.2-7.7,39.4-10.2
		c18.7-3.8,40.5-7.1,64.8-8.7c20.5-1.3,39.3-1.2,56-0.3c12.4,1.8,28.3,5,46.5,10.5c22.6,6.9,37.7,15.3,54.1,22
		c32.6,13.4,52.7,31.1,63.9,42.5c10.8,11,18.7,21.9,24.6,31.5c9.7,15,20.1,33.4,29.5,55.1c9.3,21.4,15.5,41.2,19.7,58.3
		c-6.7-4.8-14.6-10-23.6-15.2c0,0-15.2-8.6-30.5-14.8c-36-14.4-77.8-15.6-86.9-15.7c-31.1-0.6-53.5,4-88.5,11
		c-23.8,4.8-44.7,10.4-62.3,15.7c-65.9,20.1-111.2,45-122.2,51.2c-10.2,5.7-19.9,11.7-39.4,23.6c-32.3,19.8-41,26.3-46.7,30.7
		c-14.1,11-24.9,21.5-32.8,29.9l-6.9,5.6"/>
	<path fill="none" stroke="#262665" stroke-width="9.5" stroke-miterlimit="10" d="M243.8,51.4c-0.1-5.6,1-14.4,7.1-22
		c12.1-15.1,37.4-17.7,51.9-7.9c4.2,2.8,6.8,6.3,8.2,8.4"/>
	<path fill="none" stroke="#262665" stroke-width="9.5" stroke-linecap="round" stroke-miterlimit="10" d="M160.2,344.8
		c6.6,5,17.5,11.6,32.2,14.7c2.3,0.5,11,2.2,22.4,1.6c9.5-0.5,17.3-2.4,23-4.2c14.6-4.4,30.2-9.7,46.5-16.3
		c10.2-4.1,19.9-8.3,29-12.6c16.6-7.3,36.2-14.7,58.5-21c18.1-5.1,35-8.6,50.3-11c15.7-3.1,34.5-5.7,55.7-6.3
		c29.5-0.8,55,2.4,74.9,6.3c18,4,36.1,8,54.1,12.1c12.9,3.6,27.8,8.6,43.7,15.7c15.1,6.8,28.1,14.1,38.8,21
		c3.3,0.4,14.4,1.5,23.5-5.2c5.8-4.3,8.1-9.7,10.4-15.2c2.1-5,5-13.8,4.4-25.7c-0.1-3.9-0.8-9.5-3.3-15.7c-1.6-4.1-3.7-7.5-5.5-10
		c-4-5.1-8.7-10.7-14.2-16.3c-7.8-7.9-15.4-14.3-22.4-19.4c-0.6-0.9-1.4-1.9-2.1-2.9"/>
	<path fill="none" stroke="#262665" stroke-width="9.5" stroke-miterlimit="10" d="M150.9,371c-1.6-2.8-5.3-9-12-15.2
		c-4.9-4.5-9.8-7.6-13.9-9.8c-1.6-0.9-3.4-1.5-5.2-2c-4.6-1.2-11.3-2.2-19.2-1.4c-10.4,1.1-18.1,5-22.3,7.7c-0.7,0.4-1.3,0.9-2,1.4
		c-3.6,2.8-7.2,5.6-10.8,8.4c-1.8,1.4-3.3,3-4.6,4.8c-3.7,5.4-7.7,12.1-11.1,20.3c-3.4,8-5.4,15.4-6.6,21.5
		c-1.8,8.2-3.6,20.7-1.6,35.7c2.2,17,8.2,30,12.6,37.8c3.6,5.8,10.1,14.6,20.8,22.6c9.1,6.8,17.8,10.5,24,12.6
		c6.9,2,17.8,4.4,31.2,3.7c11.9-0.6,21.5-3.4,27.9-5.8c8.1-3.5,16-10,18.6-12.8"/>
	<path fill="none" stroke="#262665" stroke-width="9.5" stroke-linecap="round" stroke-miterlimit="10" d="M698.3,344.9
		c0.7,0.4,1.3,0.9,2,1.4c3.6,2.8,7.2,5.6,10.8,8.4c1.8,1.4,3.3,3,4.6,4.8c3.7,5.4,7.7,12.1,11.1,20.3c3.4,8,5.4,15.4,6.6,21.5
		c1.8,8.2,3.6,20.7,1.6,35.7c-2.2,17-8.2,30-12.6,37.8c-3.6,5.8-10.1,14.6-20.8,22.6c-9.1,6.8-17.8,10.5-24,12.6c-3.3,1,5-0.7,0,0"
		/>
	<g>
		<path fill="none" stroke="#262665" stroke-width="9.5" stroke-linecap="round" stroke-miterlimit="10" d="M680,392
			c12.6-1.3,26.7,12.9,26.2,33.3"/>
	</g>
	<path fill="none" stroke="#262665" stroke-width="9.5" stroke-linecap="round" stroke-miterlimit="10" d="M678.4,396.4
		c1.5,5.7-3.8,21.7-2,39.2c0.8,7.4,3.3,19.2,4.9,26c0.9,3.8,1.3,7.8,1.3,11.8c0,0.1,0,0.2,0,0.4c-0.3,24.1-7.9,47.7-22.3,65.9
		c-3.8,4.8-8,9.2-12.6,12.8c-31.3,24.2-53.9,31-96.1,41.8c-13.4,3.4-54.3,8.3-103.4,10.2c-31.3,1.2-78.3-0.9-130.4-17.2
		c-37.8-11.9-63.7-26.8-76.9-34.4c-13.8-8.1-27.7-16.2-42.6-30.1c-10.6-9.9-34.3-31.9-34.3-45.2"/>
	
		<ellipse fill="#262665" stroke="#262665" stroke-width="9.5" stroke-linecap="round" stroke-miterlimit="10" cx="358.1" cy="411.1" rx="16.5" ry="34.5"/>
	<path fill="none" stroke="#262665" stroke-width="9.5" stroke-linecap="round" stroke-miterlimit="10" d="M384.2,303.7
		c0.5,0.2,0.9,0.4,1.4,0.7c17.3,8.4,31.8,15.4,40.2,25.5c13,15.7,10.9,38.2,10.1,45.9c-1.7,17.3-8.3,23.7-4.4,27.8
		c7,7.4,35.9-4.5,54.9-20.5c9.2-7.8,21.8-18.3,24.9-36.2c3.1-18-5.3-32.4-7.9-36.7c-0.6-1-7.6-12.3-20.2-20.5"/>
	<path fill="none" stroke="#262665" stroke-width="9.5" stroke-linecap="round" stroke-miterlimit="10" d="M582.6,302.9
		c15.2,8.9,23.5,21.1,31.7,33c3.5,5.1,8.9,13.2,13.3,25.1c3,8.1,9.5,26.3,5.8,47.7c-1.4,8.3-5,20.7-8.3,30.6
		c-4,11.7-6.3,15.7-4.6,17.1c3.9,3.2,24-11.1,37.9-27c2.5-2.9,14.1-16.5,21.7-37.4c3.1-8.7,5.5-15.3,5.4-24.7
		c-0.1-8.8-2.4-16.1-6.2-28.2"/>
	<path fill="none" stroke="#262665" stroke-width="9.5" stroke-linecap="round" stroke-miterlimit="10" d="M162.1,346.1
		c-7.6,8-11.7,20.7-12.6,23.4c-4.3,13.4-3.7,25.1-2.7,32c1.1,8.1,3.7,26.4,19.7,40.7c12.2,10.9,25.5,13.5,37.2,15.7
		c3.3,0.6,11.8,2.2,12.8,0c1.4-3-13-7.3-18.3-19.4c-4.4-10.1-0.4-20.6,4.1-32.5c1.8-4.6,6.7-16.6,18-29.1
		c12.3-13.7,26-21.4,35.5-25.7"/>
	<path fill="none" stroke="#262665" stroke-width="9.5" stroke-linecap="round" stroke-miterlimit="10" d="M181.3,155.2
		c9.4-17.2,25.2-41.7,51.7-66.9"/>
	<path fill="none" stroke="#262665" stroke-width="9.5" stroke-linecap="round" stroke-miterlimit="10" d="M146.1,282.9
		c2.3-19.3,7.2-45.9,18-76.4"/>
	<path fill="none" stroke="#262665" stroke-width="9.5" stroke-linecap="round" stroke-miterlimit="10" d="M520.9,475.6
		c-9.3,9-15.7,23.5-15.7,39.3c0,18.7,9.3,32.8,21.7,38.9"/>
	<path fill="none" stroke="#262665" stroke-width="9.5" stroke-linecap="round" stroke-miterlimit="10" d="M376,473.9
		c9.3,9,15.7,23.5,15.7,39.3c0,18.7-9.3,32.8-21.7,38.9"/>
	<path fill="none" stroke="#262665" stroke-width="9.5" stroke-linecap="round" stroke-miterlimit="10" d="M391.5,517.4
		c7.4,14.8,62.6,22.3,95.2,13.3c6.9-1.9,15.4-6.9,18.7-13.3"/>
	<g>
		<path fill="none" stroke="#262665" stroke-width="9.5" stroke-linecap="round" stroke-miterlimit="10" d="M128.8,405.3
			c-3.6-12.1-12.3-21.4-21.9-22.4c-13.6-1.5-30.7,13.6-30.1,36.6"/>
	</g>
	<g>
		<path fill="#262665" d="M487.8,427.1c0,0,1-0.8,2.8-2.1c1.8-1.3,4.4-3.2,7.7-5.5c1.7-1.1,3.6-2.4,5.7-3.5c2.1-1.2,4.3-2.3,6.6-3.4
			c2.2-1.1,4.5-2.1,6.8-3.1c1.2-0.5,2.4-1.1,3.6-1.6l0.9-0.4l0.4-0.2l0.5-0.2c0.7-0.3,1.5-0.6,2.2-0.8c2.8-1,5.8-1.7,8.6-2.2
			c2.8-0.5,5.6-0.8,8.1-1c1.3-0.1,2.6-0.2,3.8-0.2c1.2-0.1,2.4-0.1,3.6-0.1c2.3-0.1,4.5,0,6.5,0c4,0.1,7.3,0.2,9.6,0.3
			c2.3,0.1,3.6,0.2,3.6,0.2c5.8,0.3,10.3,5.2,10,11c-0.3,5.8-5.2,10.3-11,10c-0.5,0-0.9-0.1-1.3-0.2l-0.2,0c0,0-1.2-0.2-3.3-0.6
			c-2.1-0.4-5.2-0.9-8.8-1.5c-1.8-0.3-3.8-0.5-5.8-0.8c-1-0.1-2.1-0.2-3.1-0.3c-1.1-0.1-2.1-0.2-3.2-0.2c-2.2-0.1-4.4-0.2-6.5-0.1
			c-2.2,0.1-4.3,0.3-6.3,0.7c-0.5,0.1-1,0.2-1.5,0.3l-0.4,0.1l-0.5,0.1l-0.9,0.3c-1.2,0.3-2.4,0.7-3.5,1c-2.4,0.7-4.7,1.4-6.9,2.1
			c-2.2,0.7-4.2,1.4-6,2.1c-1.8,0.7-3.5,1.5-5.2,2.3c-3.3,1.6-6,3.2-8,4.3c-2,1.1-3.1,1.7-3.1,1.7c-2.4,1.3-5.5,0.5-6.8-2
			C485.2,431.3,485.9,428.5,487.8,427.1z"/>
	</g>
</g>
<g id="Layer_6">
</g>
</svg>
