<?xml version="1.0" encoding="utf-8"?>
<!-- Generator: Adobe Illustrator 18.1.1, SVG Export Plug-In . SVG Version: 6.00 Build 0)  -->
<svg version="1.1" xmlns="http://www.w3.org/2000/svg" xmlns:xlink="http://www.w3.org/1999/xlink" x="0px" y="0px"
	 viewBox="0 0 792 612" enable-background="new 0 0 792 612" xml:space="preserve">
<g id="base">
	<path fill="#FFCD5A" d="M697.6,378c-0.5-1.8-1.5-3.1-2.8-4c-0.4-7.2-1.9-14.1-4.6-20.9c-1.3-3.2-4.3-5.1-7.2-5.3
		c-0.8-2.6-1.7-5.2-3-7.7c-1.4-2.9-4.7-3.8-7.6-3.5c-0.2-1.2-0.7-2.2-1.3-3.1c-1.1-2.1-3.2-3.6-6.2-3.6c-1.7,0-3,0.5-4.1,1.2
		c-2,1.1-3.4,3.2-3.1,6.3c0,0.1,0,0.2,0,0.3c0,0.8,0.1,1.5,0.4,2.2c0.5,2.5,1.4,4.6,2.6,6.5c-1.3,0.9-2.4,2.2-2.9,4
		c-6.9,22.9-17.2,43.3-27.8,64.6c-0.8,1.6-1.6,3.4-2.2,5.1c-5,1.4-9.4,5.2-13.3,8.5c-5,4.4-10.9,6.4-17,7.6
		c5.2-11.7,9.9-25,8.3-37.3c1.7-1.2,2.9-3.1,3.2-5.6c0.2-1.8,0.2-3.5,0.1-5.2c0.1-8-0.1-16-0.7-24c-0.2-2.7-1.7-4.9-3.7-6.2
		c-0.2-3.7-0.8-7.1-2.2-10.6c-1.5-3.7-3.8-7.2-4.3-11.1c0-0.6-0.1-1.2-0.1-1.8c-0.3-3.9-2.8-6.2-5.7-6.9c-0.3-3-0.8-5.9-2.1-8.7
		c-4.3-9.2-13.2-16.2-21.4-21.8c-10.2-6.8-23.5-8.6-35.3-11.2c-12.4-2.8-24.9-5.3-37.5-7.5c-1.2-1.2-2.9-2-5.1-2
		c-7.5,0-9.1,9.2-4.9,13.1c0.6,1.1,1.5,1.9,2.8,2.5c-0.4,1.6-0.1,3.3,1,5.2c3.1,4.8,6.1,8.4,6.7,14.1c0.6,5.5,2.4,10.5,3.5,15.8
		c2.4,11.9-5.9,18.1-9.7,28.1c-0.1,0.4-0.3,0.8-0.4,1.2c-1.5,0.5-2.9,1.6-3.7,3.6c-2.8,6.5-8.9,8.6-15,11.2
		c-6.2,2.6-11.2,5.9-16.6,9.8c-3.1,2.2-6.4,4-9.8,5.2c-2.7-2.8-8.1-2.6-10.9-0.1c-0.5,0.5-1,1-1.5,1.5c-3.7-0.6-7.6-2-11.2-2
		c1.3-4.5,2.5-9,3.9-13.3c2.4-7.5,4.4-15.3,4-23.2c-0.5-9.1-4-18-6.6-26.7c-1.1-3.6-3.8-5.2-6.6-5.3c-2.8-4-6.1-7.7-9.9-11
		c-3.8-3.3-8.1-6.9-13.2-7.7c-0.9-1.2-2.3-2-4.3-2.3c-11.2-1.5-21.1,2.6-31.5,6.3c-10.7,3.8-21.3,7.8-31.9,12
		c-20.8,8.2-41.8,16.7-61.6,27c-7.9,4.1-15.6,8.9-22.1,15.1c-6.9,6.7-11.2,14.8-15,23.4c-1.6,0.5-3.1,1.5-4.1,3.3
		c-3,5.2-4.8,10.9-4.9,16.9c0,0.8,0,1.7,0.1,2.5c-2.9,10.1-3.7,20.5,3.7,24c0.1,1,0.5,2.1,1.3,3.1c1.6,2,2.8,4.3,3.5,6.6
		c-4.2-1-8.5-1.3-13-2c-7.9-1.2-14.7-4.1-21.8-7.5c-2.3-1.1-4.5-1.8-7.1-1.6c-0.1,0-0.3,0-0.4,0.1c-0.1-0.2-0.1-0.3-0.2-0.5
		c-0.1-0.9-0.3-1.7-0.5-2.5c-1.4-5.3-4.6-8.5-9.6-9.3c-1.2-4-3.2-8.1-4.5-11.7c-4.5-12.6-2.7-26.2-3.1-39.5
		c7.2-2.2,6.4-14.5-2.3-14.5c-0.2,0-0.3,0-0.5,0c-3.3-7.5-9.6-14.8-16.6-16.5c-10.5-2.5-26.9-4.6-34.5,4.7c-0.1,0.1-0.1,0.2-0.2,0.3
		c-0.2,0-0.3,0.1-0.5,0.1c-6.9,1.1-10.4,4.5-14.9,9.6c-5.5,6.4-12.3,13.3-14.1,21.4c-0.5,0.5-0.9,1-1.3,1.7
		c-5.9,10.3-6.5,25.2-7.8,36.9c-0.6,5.4-1.4,13,0.2,19c-2.5,3.2-2.9,8.3,1.6,11.1c-2.1,2.1-2.9,5.2-0.9,8.5
		c6.5,10.5,14.3,19.9,23.5,28.2c0.9,1.8,2.3,3.1,3.9,4.2c2.1,2.5,4.4,4.8,7.6,7c7.6,5.2,17,10,26.3,11.2c10.7,1.3,21-2.6,31.6-2.5
		c3.8,0,6.3-2.5,7-5.5c3.5-0.8,6.7-1.9,9.3-4.2c1.6-1.4,2.7-3.1,3.7-5c0.2-0.5,0.4-0.9,0.6-1.4c1.1,0.2,2.5,0.3,3.8,0.4
		c14.2,18.5,27.7,41.3,48.6,52.9c1.6,0.9,3.2,1.8,4.9,2.6c1.2,1.1,2.5,2.1,3.9,3.1c5,3.7,10.3,6.6,15.9,9c1,0.6,2,1.1,3.1,1.6
		c5.6,11.2,17,15.2,28.6,17.5c0.8,1.4,2.1,2.5,4,3.2c5.1,1.8,11.3,4.5,17.1,5.2c8.7,6.4,22.4,8.5,31.6,10.9
		c19.7,5.1,40.1,7.8,60.4,8.4c19.9,0.5,39.8-1.2,59.4-4.4c1.1-0.2,2.3-0.4,3.4-0.6c0.8,0.7,1.8,1.2,3.1,1.4
		c3.8,0.6,7.4,0.9,11.1-0.4c2.1-0.7,3.9-1.8,5.7-3c2.3-0.6,4.5-1.2,6.8-1.8c4.5-1.2,9.7-2,13.3-5.4c0.3-0.2,0.5-0.5,0.7-0.8
		c1.1,0.3,2.3,0.4,3.6,0.1c17.7-3.9,34.3-12.4,50.1-21.1c4.8-2.6,9-5.9,13.1-9.4c3.2-2.1,6.2-4.4,9.3-6.6
		c6.9-4.9,13.9-9.4,18.6-16.6c0.3-0.5,0.5-1,0.7-1.4c2.6-2.2,5.1-4.6,7.3-7.3c1.7-2.2,3.4-4.4,5-6.7c1.5-0.4,2.9-0.7,4.4-1.1
		c0-0.2,0-0.3,0-0.5c0.8-5.2,3.7-10.6,7.5-14.3c4.1-4,9-4.8,14.2-4c1.9-1,3.9-1.8,6.1-2.3c-0.4-0.6-0.9-1.1-1.4-1.6
		c4.2-1.1,8.1-3.2,11-6.2c1.5-0.5,2.9-1.1,4.4-1.8c6.4-3.1,11.2-8.1,14.4-14.1c1.1-0.7,2.3-1.5,3.4-2.3c2-0.5,3.8-1.9,4.7-4.1
		c2.8-2.9,5.2-6.1,6.5-9.6c3.9-10.4,5.9-23.1,7.3-34.1C704.3,399.5,700.3,388.5,697.6,378z M349.8,433.7c-1.3-0.5-2.5-0.6-3.6-0.3
		c-1.3-4.8-3.1-9.4-5.5-13.4c1.9-2.9,2-6.4,2.2-10.1c0.4-5.9,0.9-11.8,1.9-17.7c0.8-4.8,1.3-13.9,4.1-17.9c0.3-0.5,0.4-0.9,0.5-1.1
		c1.4,0,2.8,0.1,4.2,0.2c2.7,0.2,5.4,0.4,8.1,0.6c2.1,0.1,4.7,0.6,7,0.6c0.6,6.8,2.7,13.4,6.2,19.4c0.3,1.6,0.5,3.2,0.7,4.7
		C375.1,418,369.8,441.4,349.8,433.7z M502.8,436c-1.1,0.4-2.2,0.9-3.2,1.5c-2.6-3-4.9-6.3-6.4-9.9c-3.3-7.7-2.5-17.4-2.5-25.6
		c0-9,0.9-17.6,4-26.1c0.3-0.7,0.4-1.4,0.4-2.1c0.4-0.4,0.8-0.9,1.1-1.4c1.4,0.7,3.1,1.1,4.9,1.2c5.4,0.3,8.5-0.7,11.9,4.6
		c2.8,4.4,3.3,10,5.4,14.8c0.9,2.1,2.1,3.9,3.5,5.5C520.5,411.5,516.2,431.1,502.8,436z"/>
	<path fill="#E66525" d="M689.9,268.1c-4.9-6.6-11.7-12.1-17.8-17.7c-2.8-5.5-6.2-10.8-10.5-14.4c-2.1-1.8-4.7-2.2-7.4-2.5
		c-1.2-1-2.4-2-3.6-3c-0.5-1.2-1-2.4-1.4-3.6c0-4.5,0-9,0-13.5c0-3-1.8-5.5-4.3-6.7c-0.7-2.1-1.5-4.1-2.3-6.1c-1-2.4-1.9-4.9-3-7.2
		c-2.4-14.6-8.2-28.4-16.9-40.3c-2.9-11.1-9-21.7-15.9-31.4c-0.9-5.5-2.6-10.8-5.9-15.9c-5.6-8.7-13.5-15.5-21.5-21.8
		c-3.3-2.6-6.9-5.3-10.7-7.5c-3.3-4.7-7.9-8-13.1-10.5c-8.4-7.3-17.8-14.2-29.2-13.3c-0.8,0.1-1.6,0.3-2.3,0.6
		c-20-12.5-41.2-23.1-64.4-28.1c-18.9-4.1-38.4-4.1-57.6-4c-17,0-33.6,1-49.4,7c-12,0.9-23.8,2.6-35.2,5.6c-1.5-2.4-3.8-4.6-6.1-6.3
		c-20.8-15.6-51-3.4-55.8,21.9c-0.2,1.2-0.1,2.6,0.3,3.8c-1.4,0.7-2.6,1.7-3.4,3c-0.2,0-0.3,0-0.5,0.1c-7.9,1.7-14.6,5.6-20.9,10.2
		c-6.6,3-13.3,5.8-20.1,8.7c-9.8,4.2-17.9,9.5-22.6,19c-14.6,6.9-25.3,21.5-36.1,32.9c-1.7,1.8-2.3,3.8-2.2,5.6
		c-3.2,2.7-5.4,6.4-6.2,10.7c0,0.1,0,0.2,0,0.3c-1.6,1.2-3.2,2.5-4.5,3.8c-5.1,5-8,11.2-10.6,17.8c0,0.1,0,0.2-0.1,0.3
		c-4.5,1.8-8.3,6.1-9.6,10.4c-0.7,2.3-0.6,4.6,0,6.7c-2.5,4-4.2,8.5-5.6,13.2c-3.1,10.9-5.9,21.8-9.6,32.4
		c-2.9,8.5-18.2,38.5-11.4,50.4c-4,2.9-4.5,7.7-5,13.9c-0.5,7.6-3.4,18.8-0.6,26.1c1.2,3,3.3,5,5.9,5.8c-0.4,0.6-0.9,1.3-1.4,1.9
		c-5.8,7.6,7.1,15,12.9,7.5c2.2-2.9,2.1-4.9,6.1-5.3c3.7-0.3,7.5-0.1,11.2-0.1c7.9-0.1,15.8-0.3,23.7-0.2c3.8,0,4.5-0.1,6.3,2.9
		c1.5,2.2,2.2,4.4,4.5,6c5.1,3.6,11.7,2.3,16.1-1.7c4.8-4.3,8.3-10.4,12.7-15.1c0.5-0.5,1-1,1.5-1.5c-1.2,2.3-2.2,4.7-2.7,7.3
		c-0.8,3.7,1.1,8.4,5.2,9.2c3.2,0.6,6.5,1.2,9.7,1.8c1.2,2.2,3.3,3.5,6.4,3.9c2.3,0.3,4.6,0.2,6.7-0.1c29.4,3.4,56-4.2,82.5-17.7
		c13.6-6.9,27-14.3,41.3-19.9c0.6-0.2,1.1-0.4,1.7-0.7c6.7-1.4,13.5-3.1,20.1-5c4.2-1.2,13.5-3.3,20.7-6.9c1.1,0.6,2.5,1,4.2,0.8
		c0.6-0.1,1.3-0.2,2-0.3c0,0,0,0,0,0c0,0,0.1,0,0.1-0.1c3.2-0.6,7-2,10.4-4c7.5-2.8,15.2-5.2,23.1-6.2c10.1-1.3,19.6-0.8,29.1-4.9
		c0.6,0.4,1.1,0.7,1.8,1c4.8,2.1,10.4,1.2,15.4,1.1c7.7-0.2,15.4-0.2,23.1-0.1c15.9,0.2,31.8,1,47.7,2.3c1.7,0.1,3.4,0.3,5.1,0.4
		c13.3,4.1,26.6,8.6,40.3,9.1c1.8,2.1,4.1,3.8,6.7,5.1c6.7,3.5,14.5,2.8,21.3,5.9c6.7,3,11.3,7,18.8,8.1c1.8,0.3,3.8,0.4,5.9,0.5
		c4.3,6.6,10.5,8.4,17.6,11c7.1,2.6,11.8,8.6,20,5.7c6.3-2.2,15.2-7.4,19.3-12.7c4.9-6.3,5.1-15.4,5.3-23
		C695.2,282.9,694.9,274.8,689.9,268.1z M615.5,206.9c0.3-0.4,0.6-0.8,0.9-1.3c2.3,1.4,4.4,3,6.2,4.9
		C620.3,209.3,617.9,208.1,615.5,206.9z"/>
	<g>
		<path fill="#262665" d="M365.7,383.3c-0.1-6.7-9.9-11-13.8-3.8c-8.2,15.1-9.7,32.8-3.4,48.9c1.9,4.8,6.2,6.5,10.9,4.5
			c6.2-2.7,8.6-9.1,9.5-15.4c1.3-8.9,1.6-18.1,2.4-27.1C371.8,386.1,369,383.7,365.7,383.3z"/>
		<path fill="#262665" d="M515.6,380.4c2.9-8.7-9.9-12.6-13.8-5.2c-3.2,0.3-6.2,1.8-8.1,4.7c-2.6,3.9-2.3,9.4-2.5,13.9
			c-0.3,6.1-0.2,12.2,0.1,18.3c0.1,2.3,1.1,4.1,2.5,5.3c-0.2,7.1,0.7,13.9,5.9,19.4c3.2,3.5,9.4,2.6,11.7-1.5
			c4.7-8.4,4.6-17.6,4.8-26.9c0.2-7.5,2.2-18.3-1.4-25.7C515.1,382,515.4,381.2,515.6,380.4z"/>
		<path fill="#262665" d="M492.9,310.9c-0.2-1.6-0.5-3.2-0.9-4.7c-1.7-7-4.7-15.8-11.6-18.9c1.1-2.1,0.9-4.7-1-7.8
			c-3.3-5.5-8.8-4.2-14.1-3.1c-7.3,1.4-14.5,2.8-21.8,4c-7.5,1.2-15.1,1.9-22.7,2.3c-7,0.4-14,3.3-20.9,3.2
			c-9.6-0.1-9.6,14.8,0,14.9c2.5,0,4.9-0.4,7.2-0.9c0.4,0.7,0.8,1.5,1.4,2.3c1.1,1.4,2.8,2.6,4.8,3.7c0.1,0.3,0.3,0.6,0.5,0.8
			c0.4,0.5,0.8,1,1.2,1.5c0,0,0,0,0,0c0,0,0,0,0.1,0.1c2.8,3.6,5.6,7.1,8.6,10.6c1,1.2,2.5,1.8,4.1,2.1c2.2,4.7,4.1,9.4,4.9,14.5
			c-0.1,0.5-0.3,0.9-0.4,1.4c-0.6,2.5-0.2,4.5,0.9,6c0,0.7-0.1,1.4-0.1,2.1c-0.5,5.2-1.1,10.1-1.2,15.3c0,4.2,0.7,9.8-3.4,12.3
			c-8.3,5-1,17,7.5,12.9c2.9-1.4,6.5-1.2,9.5-2.3c2.8-1.1,5.2-2.6,7.6-4.4c1.4-1.1,2.8-2.3,4.1-3.5c0.5,0,1,0,1.6-0.2
			c7.9-1.8,13.1-5,18.6-10.9c6.3-6.7,13.3-13.4,16.6-22.2C498,331.4,496.6,320.9,492.9,310.9z"/>
		<path fill="#262665" d="M647.9,323.5c-3.3-3.5-7.3-5.2-11.7-6.9c-6.9-2.7-13.7-5.4-20.3-8.6c-5.7-2.7-13.7-8-20.4-7
			c-1-0.5-2.1-0.8-3.4-0.8c-0.2,0-0.5,0-0.7,0c-0.6-3.1-3-5.7-7-5.7c-9.6,0-9.6,14.9,0,14.9c0.2,0,0.5,0,0.7,0
			c0.3,1.2,0.8,2.4,1.6,3.4c0.6,7.2,7.4,14.6,10.5,20.3c11.5,21.1,22.1,50.9,9.8,73.7c-1.5,2.7-1.1,5.3,0.2,7.4
			c-1,0.9-1.8,2-2.2,3.3c-9.5,0.1-9.4,14.9,0.1,14.9c3.7,0,6-2.2,6.8-5c3.8,0,6-2.4,6.8-5.3c2.1-0.9,3.4-2.6,3.9-4.6
			c1.1-0.3,2.1-1,3-2.2c14.1-18.3,29.2-37.6,32.7-61.3C659.8,343.2,655.2,331.3,647.9,323.5z"/>
		<path fill="#262665" d="M229.6,343.5c-4.4,4.3-15.2,2-20.5,1.1c-5.8-1-15-1.9-19-6.8c-0.9-2.6-3.2-4.6-6.7-4.6
			c-2.5,0-4.3,1-5.5,2.5c-2.4,2.1-3.4,5.4-1.2,8.9c0.3,0.4,0.5,0.8,0.8,1.1c-6.1,4.1-9.7,9.1-9.5,16.9c0.3,9.2,2.1,18.7,3.6,27.8
			c0.6,3.9,1.3,7.6,2.8,11.2c1.6,3.9,4.3,6.9,5.4,11c0.9,3.4,1.2,6.4,3.5,9.3c2.5,3.1,6.1,4,9.1,6.4c3.4,2.8,7.2,2.4,9.8,0.4
			c2.6,1.9,5.8,3.1,8.6,5.2c7.3,5.8,17.6-3.7,10.5-10.5c-2.3-2.3-6-5.8-10.1-8.9c-0.3-3,0.8-7.1,1.5-9.7c2.3-8.3,6.1-16,7.9-24.5
			c0.4-1.9,0-3.7-0.9-5.2c0.6-0.8,1.2-1.6,1.8-2.3c7.1-8.2,18.2-9.8,20.7-21.9C243.5,343.7,235.1,338.1,229.6,343.5z"/>
	</g>
	<path fill="none" stroke="#262665" stroke-width="8.9355" stroke-miterlimit="10" d="M94,341.7c-3-14.4-5.4-33.2-4.5-55.1
		c1.3-30.3,8.5-54.9,14.9-71.5c6.7-17.4,15.4-45.4,37.2-76c7.3-10.2,19.5-27.1,40.2-43.9c13.5-11,26.1-18.3,35.7-23.8
		C232.1,63,245,57,254.8,52.7c11.1-4.9,23.5-9.7,37.2-14.1c12.7-4.1,24.7-7.2,35.7-9.7c17-3.6,36.8-6.7,58.8-8.2
		c18.6-1.2,35.7-1.1,50.9-0.2c11.2,1.7,25.7,4.7,42.2,9.9c20.5,6.5,34.2,14.5,49.1,20.8c29.6,12.7,47.9,29.4,58.1,40.2
		c9.8,10.4,17,20.7,22.3,29.8c8.8,14.2,18.3,31.6,26.8,52.1c8.4,20.2,14,39,17.9,55.1c-6.1-4.6-13.2-9.5-21.4-14.3
		c0,0-13.8-8.2-27.7-14c-32.7-13.6-70.6-14.7-78.9-14.9c-28.2-0.5-48.6,3.7-80.4,10.4c-21.6,4.5-40.6,9.8-56.6,14.9
		c-59.8,19-101,42.6-110.9,48.4c-9.2,5.4-18.1,11.1-35.7,22.3c-29.3,18.8-37.3,24.8-42.4,29c-12.8,10.4-22.6,20.4-29.8,28.3
		l-6.3,5.3"/>
	<path fill="none" stroke="#262665" stroke-width="8.9355" stroke-miterlimit="10" d="M255.8,52.7c0-5.3,0.9-13.6,6.5-20.8
		c11-14.3,34-16.7,47.2-7.4c3.8,2.7,6.2,5.9,7.4,7.9"/>
	<path fill="none" stroke="#262665" stroke-width="8.9355" stroke-miterlimit="10" d="M179.9,330.2c6,4.7,15.9,11,29.3,13.9
		c2.1,0.5,10,2.1,20.4,1.5c8.6-0.5,15.7-2.3,20.8-4c13.3-4.2,27.4-9.2,42.2-15.4c9.3-3.9,18.1-7.9,26.3-11.9
		c15.1-6.9,32.8-13.9,53.1-19.9c16.4-4.8,31.8-8.1,45.7-10.4c14.3-3,31.4-5.4,50.6-6c26.8-0.8,50,2.2,68,6
		c16.4,3.8,32.8,7.6,49.1,11.4c11.7,3.4,25.2,8.1,39.7,14.9c13.8,6.4,25.5,13.4,35.2,19.9c3,0.4,13.1,1.5,21.3-5
		c5.2-4.1,7.3-9.2,9.4-14.4c1.9-4.7,4.5-13.1,4-24.3c-0.1-3.7-0.7-9-3-14.9c-1.5-3.9-3.3-7.1-5-9.4c-3.6-4.9-7.9-10.1-12.9-15.4
		c-7-7.5-14-13.5-20.4-18.4c-0.6-0.9-1.2-1.8-1.9-2.8"/>
	<path fill="none" stroke="#262665" stroke-width="8.9355" stroke-miterlimit="10" d="M168,350.6"/>
	<path fill="none" stroke="#262665" stroke-width="8.9355" stroke-miterlimit="10" d="M171.4,355.1"/>
	<path fill="none" stroke="#262665" stroke-width="8.9355" stroke-miterlimit="10" d="M171.4,355.1c-1.5-2.7-4.8-8.5-10.9-14.4
		c-4.4-4.3-8.9-7.2-12.6-9.2c-1.5-0.8-3-1.5-4.7-1.9c-4.1-1.1-10.2-2.1-17.5-1.3c-9.4,1.1-16.4,4.8-20.3,7.2
		c-0.6,0.4-1.2,0.8-1.8,1.3c-3.3,2.6-6.6,5.3-9.8,7.9c-1.6,1.3-3,2.8-4.2,4.6c-3.4,5.1-7,11.5-10.1,19.2c-3.1,7.6-4.9,14.6-6,20.4
		c-1.7,7.8-3.2,19.6-1.5,33.8c2,16.1,7.4,28.3,11.4,35.7c3.3,5.5,9.2,13.8,18.9,21.3c8.2,6.4,16.2,9.9,21.8,11.9
		c6.3,1.9,16.2,4.1,28.3,3.5c10.8-0.6,19.5-3.2,25.3-5.5c7.3-3.3,11.6-7.3,13.9-9.9"/>
	<path fill="none" stroke="#262665" stroke-width="8.9355" stroke-miterlimit="10" d="M668.5,330.4c0.6,0.4,1.2,0.8,1.8,1.3
		c3.3,2.6,6.6,5.3,9.8,7.9c1.6,1.3,3,2.8,4.2,4.6c3.4,5.1,7,11.5,10.1,19.2c3.1,7.6,4.9,14.6,6,20.4c1.7,7.8,3.2,19.6,1.5,33.8
		c-2,16.1-7.4,28.3-11.4,35.7c-3.3,5.5-9.2,13.8-18.9,21.3c-8.2,6.4-16.2,9.9-21.8,11.9c-3,0.9-6.9,1.9-11.4,2.6"/>
	<g>
		<path fill="none" stroke="#262665" stroke-width="8.9355" stroke-linecap="round" stroke-miterlimit="10" d="M149.3,394.5
			c-3-10.2-10.4-18-18.4-18.9c-11.5-1.3-25.8,11.5-25.3,30.8"/>
	</g>
	<g>
		<path fill="none" stroke="#262665" stroke-width="8.9355" stroke-linecap="round" stroke-miterlimit="10" d="M650.5,375.6
			c11.5-1.3,25.8,11.5,25.3,30.8"/>
	</g>
	<g>
		<path fill="none" stroke="#262665" stroke-width="8.9355" stroke-miterlimit="10" d="M650.5,375.6"/>
	</g>
	<path fill="none" stroke="#262665" stroke-width="8.9355" stroke-miterlimit="10" d="M639.8,383.4"/>
	<path fill="none" stroke="#262665" stroke-width="8.9355" stroke-miterlimit="10" d="M194.5,398"/>
	<path fill="none" stroke="#262665" stroke-width="8.9355" stroke-miterlimit="10" d="M646.5,386.3c1.3,5.9-8.2,13.8-6.6,31.9
		c1,11.4,5.1,17.4,5.5,32.6c0.1,4.8-0.4,10.1-1.9,16.7c-7.8,33.9-31.9,55.3-47.7,69.2c-25.5,22.7-50.7,31.9-71.5,39.5
		c-11.7,4.3-44.1,15.2-87.9,17.1c-27.9,1.2-69.8-0.9-116.2-17.9c-33.7-12.3-56.8-27.8-68.5-35.7c-12.3-8.4-24.7-16.8-38-31.3
		c-9.5-10.3-30.6-33.1-30.5-46.9"/>
	<ellipse fill="none" stroke="#262665" stroke-width="8.9355" stroke-miterlimit="10" cx="357.5" cy="404.2" rx="14.1" ry="32"/>
	<ellipse fill="none" stroke="#262665" stroke-width="8.9355" stroke-miterlimit="10" cx="505" cy="404.2" rx="14.1" ry="32"/>
	<path fill="none" stroke="#262665" stroke-width="8.9355" stroke-linecap="round" stroke-miterlimit="10" d="M558.6,448.1
		c4.6,16.9-20,40.9-23.1,43.9c-15.2,14.8-31.7,19.7-49.1,24.6c-18.8,5.3-54.1,14.7-97.5,3.7c-18.7-4.7-49-12.4-68.5-39.5
		c-7.4-10.3-15-20.9-12.7-30.5"/>
	<path fill="none" stroke="#262665" stroke-width="8.9355" stroke-miterlimit="10" d="M426.4,391.5"/>
	<path fill="none" stroke="#262665" stroke-width="8.9355" stroke-miterlimit="10" d="M383.3,291.4c0.4,0.2,0.9,0.4,1.3,0.7
		c15.7,7.9,28.9,14.5,36.5,24.1c11.8,14.8,9.9,36.1,9.2,43.4c-1.5,16.4-7.5,22.4-4,26.3c6.4,7,32.6-4.2,49.9-19.4
		c8.4-7.3,19.8-17.3,22.6-34.3c2.8-17-4.8-30.6-7.2-34.7c-0.6-1-6.9-11.6-18.4-19.4"/>
	<path fill="none" stroke="#262665" stroke-width="8.9355" stroke-miterlimit="10" d="M563.5,290.7c13.8,8.4,21.4,19.9,28.8,31.2
		c3.2,4.9,8.1,12.5,12.1,23.7c2.7,7.6,8.6,24.8,5.3,45.1c-1.3,7.8-4.5,19.6-7.6,29c-3.6,11.1-5.7,14.9-4.2,16.2
		c3.5,3,21.8-10.5,34.4-25.6c2.3-2.7,12.8-15.6,19.7-35.4c2.8-8.2,5-14.5,4.9-23.3c-0.1-8.3-2.2-15.2-5.7-26.7"/>
	<path fill="none" stroke="#262665" stroke-width="8.9355" stroke-miterlimit="10" d="M181.6,331.5c-6.9,7.6-10.7,19.6-11.4,22.1
		c-3.9,12.7-3.4,23.7-2.5,30.3c1,7.7,3.3,24.9,17.9,38.5c11.1,10.3,23.2,12.8,33.8,14.9c3,0.6,10.7,2.1,11.7,0
		c1.2-2.8-11.8-6.9-16.6-18.4c-4-9.5-0.4-19.5,3.7-30.8c1.6-4.4,6.1-15.7,16.4-27.6c11.1-12.9,23.6-20.3,32.3-24.3"/>
	<g>
		<g>
			<path fill="none" stroke="#262665" stroke-width="1.4892" stroke-miterlimit="10" d="M126,357.3"/>
		</g>
	</g>
	<g>
		<g>
			<path fill="none" stroke="#262665" stroke-width="1.4892" stroke-miterlimit="10" d="M117.1,354.3"/>
		</g>
	</g>
	<path fill="none" stroke="#262665" stroke-width="7.4462" stroke-linecap="round" stroke-miterlimit="10" d="M199,151
		c8.5-16.3,22.9-39.5,46.9-63.3"/>
	<path fill="none" stroke="#262665" stroke-width="7.4462" stroke-miterlimit="10" d="M212.4,158.5"/>
	<path fill="none" stroke="#262665" stroke-width="7.4462" stroke-miterlimit="10" d="M195.3,199.4"/>
	<path fill="none" stroke="#262665" stroke-width="7.4462" stroke-linecap="round" stroke-miterlimit="10" d="M167.1,271.7
		c2.1-18.2,6.5-43.4,16.4-72.2"/>
</g>
<g id="Layer_10">
</g>
<g id="Layer_9">
</g>
<g id="Layer_8">
</g>
<g id="Layer_7">
</g>
<g id="god">
	<g id="Layer_5">
	</g>
</g>
<g id="Layer_4">
</g>
<g id="Layer_6">
</g>
</svg>
