<?xml version="1.0" encoding="utf-8"?>
<!-- Generator: Adobe Illustrator 18.1.1, SVG Export Plug-In . SVG Version: 6.00 Build 0)  -->
<svg version="1.1" xmlns="http://www.w3.org/2000/svg" xmlns:xlink="http://www.w3.org/1999/xlink" x="0px" y="0px"
	 viewBox="0 0 960 460" enable-background="new 0 0 960 460" xml:space="preserve">
<g id="Layer_1">
	<g>
		<path fill="#FFFFFF" d="M508.1,101.8c-6.7,27.1-9,65.7-6.8,100.5c6-60.2,53.7-72.5,63.7-44.9c8.7,24.5-15.1,48.6,8.3,92.5h-43.8
			c-7.2-23.6,12.5-63.7,9.2-85.8c-3.8-25-43.3,4.5-30.6,85.8h-43.8c9.8-40.8,9.8-107.3,0-148.1H508.1z"/>
		<path fill="#FFFFFF" d="M605.6,177.2c-15.1,1.7-22.1-11.1-11.3-20.5c10.1-9,24.1-13.8,37.3-13.8c22.6,0,43.1,14.3,38.3,45.8
			c-2.5,16.3-5.8,34.3,8.7,61.2h-43.8c-1.5-5.2-1.8-10-1.5-15c-6.2,12.3-18,18.5-29.3,18.5c-16.3,0-31.8-12.6-28.1-37.6
			c3.2-22.1,24.5-36.4,44.6-36.4c8.2,0,16.1,2.3,22.6,7.5c3-6.2,5.2-15.5,2.2-25.6c-2.5-8.3-8.7-13-13.5-13c-3.5,0-6.3,2.3-6.7,7.2
			C623.7,172.1,613.8,176.2,605.6,177.2z M618.4,239.6c7.7,0,17.3-12,20.1-41.4c0-7.7-3.5-11.1-8-11.1c-7.2,0-17,8.7-20.8,24.1
			C605.4,228.5,610.9,239.6,618.4,239.6z"/>
		<path fill="#FFFFFF" d="M686,146.6h43.9c-6.2,24.8-8.5,42.4-7.2,61.7c1.5-29.6,11.1-61.9,38.6-65c13.1-1.5,20.6,3.8,22.8,10.6
			c3,9.5-4.7,22.1-22.8,24.3c-11.6,1.3-18.6-5.2-16.5-12.6c1.5-4.7,0.3-8.2-3.2-5c-10.8,10.3-19.1,50.7-13.3,83.3c0.5,2,1,4,1.5,6
			h-43.8C695.9,209.2,695.9,187.4,686,146.6z"/>
		<path fill="#FFFFFF" d="M816.4,253.6c-15.8,0-28.1-11.8-20.5-35.1c5.2-15.8,6.7-29.6,6.2-42.4c-0.7-17-6.7-22.6-16.1-24.5l1.2-5
			c11.1,0,41.8-4.2,49.6-32.1h5c-2.7,11-4.5,21.6-5.7,32.1h16l0.8,5h-17.3c-1.5,17.6-1.2,34.8,1.3,51.6
			c-14.6,2.3-47.9,22.1-32.8,39.8c3,3.7,7.7,5.8,11.8,5.8c2,0,4-0.5,5.7-1.5c8.8-5.5,5.3-21.8-4-28.8c8.7-6.8,16.3-9.6,22.5-9.6
			c12.3,0,18,11.5,10.6,23.8C842.5,246.6,828.4,253.6,816.4,253.6z"/>
		<path fill="#FFFFFF" d="M886.1,177.2c-15.1,1.7-22.1-11.1-11.3-20.5c10.1-9,24.1-13.8,37.3-13.8c22.6,0,43.1,14.3,38.3,45.8
			c-2.5,16.3-5.8,34.3,8.7,61.2h-43.8c-1.5-5.2-1.8-10-1.5-15c-6.2,12.3-18,18.5-29.3,18.5c-16.3,0-31.8-12.6-28.1-37.6
			c3.2-22.1,24.5-36.4,44.6-36.4c8.2,0,16.1,2.3,22.6,7.5c3-6.2,5.2-15.5,2.2-25.6c-2.5-8.3-8.7-13-13.5-13c-3.5,0-6.3,2.3-6.7,7.2
			C904.2,172.1,894.3,176.2,886.1,177.2z M898.9,239.6c7.7,0,17.3-12,20.1-41.4c0-7.7-3.5-11.1-8-11.1c-7.2,0-17,8.7-20.8,24.1
			C885.9,228.5,891.4,239.6,898.9,239.6z"/>
	</g>
	<g>
		<path fill="#FFFFFF" d="M518.1,362.2c27-21.5,48.1-3.2,29.3,19.8c-15.3,18.6-58.6,16.5-83.5,13.1c-10.3-27.6,51.2-78.4,53.1-89.5
			c0-5.7-8.5-12.3-18-12.3c-12.1,0.2-7.8,7.8-3.2,11.6c10.8,9.2,3.2,21-12,19.3c-14.3-1.7-21.1-10.8-19.8-19.1
			c1.7-10.8,12-16.8,26.8-16.8c8.3,0.2,17.1,3.5,39.6,3.5h21.8c-19.1,22.3-49.1,61.4-57.4,92c2.7,7.3,23.1,9.8,27.3,7.2
			C531.1,385.5,527.6,369.2,518.1,362.2z"/>
		<path fill="#FFFFFF" d="M609.8,398.5c-31.6,0-48.7-24-48.7-54.9c0-30.9,17.1-54.7,48.7-54.7c31.6,0,49.1,23.8,49.1,54.7
			C658.8,374.5,641.4,398.5,609.8,398.5z M602.4,392.3c24.3-2.8,37.1-99.7,15.8-97.2C592.3,298.1,577.5,395.3,602.4,392.3z"/>
		<path fill="#FFFFFF" d="M666.8,291.8h43.8c-6.3,25.5-8.7,43.4-7.2,63.4c2-45.4,25.8-66.7,44.3-66.7c8.8,0,16.3,4.8,19.6,14.1
			c8.7,24.5-15.1,48.6,8.3,92.5h-43.8c-7.2-23.6,12.5-63.7,9.1-85.8c-0.8-5.5-3.5-8.2-6.8-8.2c-11.8,0-33.4,33.4-23.6,94h-43.8
			C676.6,354.4,676.6,332.6,666.8,291.8z"/>
		<path fill="#FFFFFF" d="M833.5,398.5c-32.3,0-51.6-24.3-51.6-51.6c0-35.4,26.8-62.6,63.1-57.9c15.6,2,28.3,10.6,28.9,25.3
			c1.3,27.5-39.9,42.4-60.7,42.6c1,18.1,10.1,37.1,27,36.1c12-0.7,5.3-22-4-28.8c26-20.8,44.1-4.3,33.1,14.1
			c-4.5,7.8-13.8,16.8-28.3,19.5C838.7,398.3,836.2,398.5,833.5,398.5z M845,317.9c8.2-38.3-19.6-28.6-28.9,6.3
			c-1.7,6.3-3,16.8-3,27.6C829,351,841.7,333.6,845,317.9z"/>
	</g>
	<g>
		<path fill="#FFFFFF" d="M403.6,172.6c0-2.1-1.3-3.8-3-4.6c-0.5-1.4-1-2.8-1.6-4.3c-0.7-1.7-1.3-3.4-2.1-5
			c-1.6-10.1-5.7-19.7-11.7-27.8c-2-7.7-6.2-15-11-21.7c-0.6-3.8-1.8-7.5-4.1-11c-3.8-6-9.3-10.7-14.9-15.1
			c-2.3-1.8-4.8-3.6-7.4-5.2c-2.3-3.2-5.5-5.5-9.1-7.3c-5.8-5-12.3-9.8-20.2-9.2c-0.5,0-1.1,0.2-1.6,0.4
			c-13.9-8.6-28.5-16-44.5-19.4c-13.1-2.8-26.5-2.8-39.9-2.8c-11.7,0-23.2,0.7-34.2,4.8c-8.3,0.6-16.5,1.8-24.4,3.9
			c-1.1-1.7-2.6-3.2-4.2-4.4c-14.4-10.8-35.3-2.4-38.6,15.2c-0.2,0.9-0.1,1.8,0.2,2.6c-1,0.5-1.8,1.2-2.4,2.1c-0.1,0-0.2,0-0.3,0
			c-5.5,1.2-10.1,3.9-14.5,7.1c-4.6,2.1-9.2,4-13.9,6c-6.8,2.9-12.4,6.6-15.6,13.1c-10.1,4.8-17.5,14.9-25,22.7
			c-1.2,1.2-1.6,2.6-1.5,3.9c-2.2,1.8-3.7,4.4-4.3,7.4c0,0.1,0,0.2,0,0.2c-1.1,0.9-2.2,1.7-3.1,2.6c-3.5,3.5-5.5,7.8-7.4,12.3
			c0,0.1,0,0.1-0.1,0.2c-3.1,1.3-5.8,4.2-6.6,7.2c-0.5,1.6-0.4,3.2,0,4.6c-1.7,2.7-2.9,5.9-3.9,9.2c-2.1,7.5-4.1,15-6.6,22.4
			c-2,5.9-12.6,26.7-7.9,34.8c-2.8,2-3.1,5.3-3.4,9.6c-0.4,5.3-2.4,13-0.4,18.1c0.8,2.1,2.3,3.4,4.1,4c-0.3,0.4-0.6,0.9-1,1.3
			c-4,5.3,4.9,10.4,8.9,5.2c1.5-2,1.4-3.4,4.2-3.7c2.5-0.2,5.2-0.1,7.7-0.1c5.5-0.1,10.9-0.2,16.4-0.2c2.6,0,3.1,0,4.4,2
			c1,1.6,1.5,3,3.1,4.2c3.5,2.5,8.7,8.5,11.8,5.7c2.4-2.1,4-8.5,5.9-13.2c4.2-3.9,9.8-9.1,12.6-11.3c3.6-2.9,9.1-7.1,29.4-20.1
			c12.2-7.8,18.3-11.7,24.7-15.5c6.9-4,35.4-20.3,76.7-33.5c11.1-3.5,24.2-7.2,39.1-10.3c22-4.6,36.1-7.6,55.6-7.2
			c5.7,0.1,32,0.9,54.6,10.3c9.6,4,19.2,9.7,19.2,9.7c4.2,2.5,8,5,11.5,7.5C403.6,178,403.6,175.3,403.6,172.6z M90.1,161.7
			c-7,15.4-9,32.1-9.1,48.9c0,6.6-10.3,6.6-10.3,0c0.1-18.8,2.6-36.9,10.5-54.1C83.9,150.5,92.8,155.7,90.1,161.7z M124.1,89.6
			c-10.4,14.3-21.7,28.9-27.8,45.6c-2.3,6.2-12.2,3.5-9.9-2.7c6.5-17.7,17.8-33,28.8-48.1C119,79.1,128,84.2,124.1,89.6z"/>
		<path fill="#FFFFFF" d="M81.7,248c0.3-0.4,0.5-0.8,0.8-1.1C82.4,247.1,82.1,247.5,81.7,248z"/>
		<path fill="#FFFFFF" d="M186.6,235.1c-9.9,3.9-19.1,9-28.5,13.8L186.6,235.1z"/>
		<path fill="#FFFFFF" d="M92,258.5c-1-0.2-1.9-0.4-2.9-0.5l3.1,0.8C92.1,258.7,92,258.6,92,258.5z"/>
		<path fill="#FFFFFF" d="M96.4,261.2c1.6,0.2,3.1,0.2,4.7-0.1l-8.9-2.3C93,260.1,94.4,261,96.4,261.2z"/>
		<path fill="#FFFFFF" d="M284.7,211.9"/>
		<path fill="#FFFFFF" d="M404.3,183.7"/>
		<path fill="#FFFFFF" d="M264.3,216.7"/>
		<path fill="#FFFFFF" d="M284.7,211.9"/>
	</g>
	<path fill="none" stroke="#FFFFFF" stroke-width="6" stroke-miterlimit="10" d="M19.6,261.4c-2.1-10-3.7-23-3.1-38.1
		c0.9-21,5.9-37.9,10.3-49.4c4.6-12,10.7-31.4,25.8-52.5c5-7,13.5-18.7,27.8-30.4c9.3-7.6,18-12.6,24.7-16.5
		c10-5.8,18.9-10,25.8-12.9c7.7-3.4,16.3-6.7,25.8-9.8c8.8-2.8,17.1-5,24.7-6.7c11.8-2.5,25.4-4.6,40.7-5.7
		c12.9-0.9,24.7-0.8,35.2-0.2c7.8,1.2,17.8,3.2,29.2,6.9c14.2,4.5,23.7,10,34,14.4c20.5,8.8,33.1,20.3,40.2,27.8
		c6.8,7.2,11.8,14.4,15.5,20.6c6.1,9.8,12.6,21.9,18.5,36.1c5.8,14,10.5,25,13.1,36.2"/>
	<path fill="none" stroke="#FFFFFF" stroke-width="6" stroke-miterlimit="10" d="M131.6,61.6c0-3.7,0.6-9.4,4.5-14.4
		c7.6-9.9,23.5-11.6,32.6-5.2c2.7,1.9,4.3,4.1,5.2,5.5"/>
	<path fill="none" stroke="#FFFFFF" stroke-width="6" stroke-miterlimit="10" d="M405.6,181.2"/>
	<path fill="none" stroke="#FFFFFF" stroke-width="6" stroke-miterlimit="10" d="M72.2,248.9c4.2,3.2,17.8,12.2,27.1,14.2
		c1.5,0.3,6.9,1.4,14.1,1c6-0.3,10.9-1.6,14.4-2.7c9.2-2.9,19-6.4,29.2-10.6c6.4-2.7,12.5-5.4,18.2-8.2c10.4-4.8,22.7-9.6,36.7-13.7
		c11.4-3.3,22-5.6,31.6-7.2c9.9-2,21.7-3.7,35-4.1c18.6-0.6,34.6,1.5,47,4.1c11.3,2.6,22.7,5.3,34,7.9c8.1,2.3,17.4,5.6,27.5,10.3
		c9.5,4.5,17.6,9.2,24.4,13.7c2.1,0.3,9,1,14.8-3.4c3.6-2.8,5.1-6.4,6.5-10c1.3-3.3,3.1-9.1,2.7-16.8c-0.1-2.6-0.5-6.2-2.1-10.3
		c-1-2.7-2.3-4.9-3.4-6.5c-2.5-3.4-5.5-7-8.9-10.6c-4.9-5.2-14.5-16.6-18.9-20"/>
	<path fill="none" stroke="#FFFFFF" stroke-width="6" stroke-miterlimit="10" d="M70.8,267.6"/>
	<path fill="none" stroke="#FFFFFF" stroke-width="6" stroke-miterlimit="10" d="M73.2,270.7"/>
	<path fill="none" stroke="#FFFFFF" stroke-width="6" stroke-miterlimit="10" d="M73.2,270.7c-1-1.8-3.3-5.9-7.6-10
		c-3.1-3-6.2-5-8.7-6.4c-1-0.6-2.1-1-3.2-1.3c-2.9-0.8-7.1-1.5-12.1-0.9c-6.5,0.7-11.4,3.3-14,5c-0.4,0.3-0.8,0.6-1.2,0.9
		c-2.3,1.8-4.5,3.7-6.8,5.5c-1.1,0.9-2.1,2-2.9,3.2c-2.3,3.5-4.8,7.9-7,13.3C7.6,285.2,6.3,290,5.6,294c-1.2,5.4-2.2,13.6-1,23.3
		c1.4,11.1,5.1,19.6,7.9,24.7c2.3,3.8,6.4,9.6,13,14.8c5.7,4.4,11.2,6.9,15.1,8.2c4.3,1.3,11.2,2.9,19.6,2.4
		c7.5-0.4,13.5-2.2,17.5-3.8c5.1-2.3,8-5.1,9.6-6.9"/>
	<path fill="none" stroke="#FFFFFF" stroke-width="6" stroke-miterlimit="10" d="M417.1,253.6c0.4,0.3,0.8,0.6,1.2,0.9
		c2.3,1.8,4.5,3.7,6.8,5.5c1.1,0.9,2.1,2,2.9,3.2c2.3,3.5,4.8,7.9,7,13.3c2.1,5.3,3.4,10.1,4.1,14.1c1.2,5.4,2.2,13.6,1,23.3
		c-1.4,11.1-5.1,19.6-7.9,24.7c-2.3,3.8-6.4,9.6-13,14.8c-5.7,4.4-11.2,6.9-15.1,8.2c-2.1,0.6-4.8,1.3-7.9,1.8"/>
	<g>
		<path fill="none" stroke="#FFFFFF" stroke-width="6" stroke-miterlimit="10" d="M57.9,298c-2.1-7.1-7.2-12.4-12.7-13
			c-7.9-0.9-17.8,7.9-17.5,21.3"/>
	</g>
	<g>
		<path fill="none" stroke="#FFFFFF" stroke-width="6" stroke-miterlimit="10" d="M404.5,284.9c7.9-0.9,17.8,7.9,17.5,21.3"/>
	</g>
	<g>
		<path fill="none" stroke="#FFFFFF" stroke-width="6" stroke-miterlimit="10" d="M404.5,284.9"/>
	</g>
	<path fill="none" stroke="#FFFFFF" stroke-width="6" stroke-miterlimit="10" d="M397.2,290.2"/>
	<path fill="none" stroke="#FFFFFF" stroke-width="6" stroke-miterlimit="10" d="M89.1,300.4"/>
	<path fill="none" stroke="#FFFFFF" stroke-width="6" stroke-miterlimit="10" d="M401.8,292.3c0.9,4.1-5.7,9.5-4.6,22.1
		c0.7,7.9,3.6,12.1,3.8,22.5c0.1,3.3-0.3,7-1.3,11.6c-5.4,23.5-22.1,38.3-33,47.9c-17.7,15.7-35.1,22-49.4,27.3
		c-8.1,3-30.5,10.5-60.8,11.8c-19.3,0.8-48.3-0.6-80.3-12.4c-23.3-8.5-39.3-19.2-47.4-24.7c-8.5-5.8-17.1-11.7-26.3-21.6
		c-6.5-7.1-21.1-22.9-21.1-32.4"/>
	<path fill="none" stroke="#FFFFFF" stroke-width="6" stroke-miterlimit="10" d="M249.6,295.9"/>
	<ellipse fill="none" stroke="#FFFFFF" stroke-width="6" stroke-miterlimit="10" cx="201.9" cy="304.7" rx="9.8" ry="22.1"/>
	<ellipse fill="none" stroke="#FFFFFF" stroke-width="6" stroke-miterlimit="10" cx="303.9" cy="304.7" rx="9.8" ry="22.1"/>
	<path fill="none" stroke="#FFFFFF" stroke-width="6" stroke-miterlimit="10" d="M341,335c3.2,11.7-13.8,28.3-16,30.4
		c-10.5,10.3-21.9,13.6-34,17c-13,3.6-37.4,10.2-67.5,2.6c-12.9-3.3-33.9-8.6-47.4-27.3c-5.1-7.1-10.4-14.4-8.8-21.1"/>
	<path fill="none" stroke="#FFFFFF" stroke-width="6" stroke-miterlimit="10" d="M219.8,226.6c0.3,0.1,0.6,0.3,0.9,0.5
		c10.9,5.5,20,10.1,25.2,16.7c8.2,10.2,6.8,25,6.4,30c-1,11.3-5.2,15.5-2.7,18.2c4.4,4.8,22.5-2.9,34.5-13.4
		c5.8-5.1,13.7-12,15.6-23.7c1.9-11.8-3.3-21.2-5-24c-0.4-0.7-4.7-8-12.7-13.4"/>
	<path fill="none" stroke="#FFFFFF" stroke-width="6" stroke-miterlimit="10" d="M344.4,226.1c9.6,5.8,14.8,13.8,19.9,21.6
		c2.2,3.4,5.6,8.7,8.4,16.4c1.9,5.3,6,17.2,3.7,31.2c-0.9,5.4-3.1,13.6-5.2,20c-2.5,7.7-4,10.3-2.9,11.2c2.4,2.1,15.1-7.3,23.8-17.7
		c1.6-1.9,8.9-10.8,13.6-24.5c2-5.7,3.5-10,3.4-16.1c-0.1-5.7-1.5-10.5-3.9-18.5"/>
	<path fill="none" stroke="#FFFFFF" stroke-width="6" stroke-miterlimit="10" d="M80.2,254.4c-4.8,5.2-7.4,13.6-7.9,15.3
		c-2.7,8.8-2.3,16.4-1.7,20.9c0.7,5.3,2.3,17.2,12.4,26.6c7.7,7.2,16,8.8,23.3,10.3c2.1,0.4,7.4,1.5,8.1,0
		c0.9-1.9-8.2-4.8-11.5-12.7c-2.8-6.6-0.3-13.5,2.6-21.3c1.1-3,4.2-10.8,11.3-19.1c7.7-8.9,16.3-14,22.3-16.8"/>
	<g>
		<g>
			<path fill="none" stroke="#FFFFFF" stroke-miterlimit="10" d="M41.8,272.2"/>
		</g>
	</g>
	<g>
		<g>
			<path fill="none" stroke="#FFFFFF" stroke-miterlimit="10" d="M35.6,270.1"/>
		</g>
	</g>
	<path fill="#FFFFFF" d="M208.7,295.2c-0.2-0.7-0.6-1.4-1.2-2c0.5-1.2,1-2.4,1.5-3.7c2.5-6.1-7.5-8.8-9.9-2.7
		c-2.6,6.4-7.3,14.7-6.7,21.8c0.2,2.4,1.4,5.1,3.6,6.4c0,0,0,0,0,0c-0.1,0.2-0.2,0.4-0.3,0.6c-1.2,1.5-1.3,4-1.3,5.8
		c0,3.3,3.3,5.9,6.5,5c4.4-1.2,7.1-4.9,7.4-9.4c0.7-0.6,1.2-1.5,1.4-2.7C210.9,307.7,210.7,301.5,208.7,295.2z"/>
	<path fill="#FFFFFF" d="M310.8,291.3c-0.1-2-1.2-3.5-2.7-4.3c-0.6-5.7-9.9-5.3-10.3,0.9c-0.5,7.9-1.2,15.7-2.2,23.5
		c-0.5,3.8-0.5,8.5,2.3,10.9c0.1,5.6,8.8,7.6,10,1.6c0.2-0.9,0.3-1.7,0.5-2.6c1.4-1.7,2.3-4.1,2.5-6.4
		C311.5,307.1,311,299.1,310.8,291.3z"/>
</g>
<g id="Layer_2">
</g>
</svg>
