<svg xmlns="http://www.w3.org/2000/svg" xmlns:xlink="http://www.w3.org/1999/xlink" viewBox="0,0,256,256" width="58px" height="58px" fill-rule="nonzero"><g fill="none" fill-rule="nonzero" stroke="none" stroke-width="1" stroke-linecap="butt" stroke-linejoin="miter" stroke-miterlimit="10" stroke-dasharray="" stroke-dashoffset="0" font-family="none" font-weight="none" font-size="none" text-anchor="none" style="mix-blend-mode: normal"><g transform="scale(0.55172,0.55172)"><path d="M335,343c-2.048,0 -4.095,-0.781 -5.657,-2.343l-49.67,-49.671c-3.125,-3.125 -3.125,-8.19 0,-11.314c3.125,-3.122 8.19,-3.122 11.313,0l49.67,49.671c5.055,5.055 1.408,13.657 -5.656,13.657z" fill="#585966"></path><circle cx="173" cy="173" r="173" fill="#E6651A"></circle><path d="M180.198,42.318c-67.589,14.451 -123.619,70.855 -137.824,138.53c-5.216,24.85 -41.815,21.164 -42.337,-4.222c-2.013,-97.983 77.593,-178.243 175.911,-176.601c25.347,0.423 29.04,36.992 4.25,42.293z" fill="#E6651A"></path><circle cx="173" cy="173" r="132" fill="#cbe3fa"></circle><path d="M228,187h-110c-4.418,0 -8,-3.582 -8,-8c0,-4.418 3.582,-8 8,-8h110c4.418,0 8,3.582 8,8c0,4.418 -3.581,8 -8,8z" fill="#E6651A"></path><path d="M227.823,134.335c0.378,4.766 -3.199,8.665 -7.98,8.665h-93.743c-4.649,0 -8.281,-3.949 -7.983,-8.589c1.863,-28.943 26.101,-51.784 55.602,-51.407c28.722,0.368 51.867,23.132 54.104,51.331z" fill="#e6651a"></path><path d="M230,222v8c0,13.255 -10.745,24 -24,24h-66c-13.255,0 -24,-10.745 -24,-24v-8c0,-4.418 3.582,-8 8,-8h98c4.418,0 8,3.582 8,8z" fill="#e6651a"></path><path d="M456.92,404.19c-16.521,-16.523 -1.161,-1.151 -79.09,-79.08c-14.56,-14.56 -38.16,-14.56 -52.72,0c-14.56,14.56 -14.56,38.16 0,52.72c77.302,77.302 62.342,62.354 79.08,79.09c9.446,9.444 24.76,9.44 34.2,0l18.53,-18.53c9.44,-9.44 9.445,-24.754 0,-34.2z" fill="#E6651A"></path><path d="M442.84,452.47l-4.45,4.45c-9.44,9.44 -24.754,9.444 -34.2,0c-19.582,-19.579 -78.966,-78.975 -78.59,-78.6c-14.726,-14.726 -15.172,-38.913 -0.136,-53.56c7.903,-7.698 21.29,-0.81 19.321,10.045c-2.12,11.691 1.413,24.113 10.325,33.025c77.302,77.302 62.33,62.365 79.08,79.09c2.537,2.533 5.5,4.39 8.65,5.55z" fill="#E6651A"></path><path d="M456.92,404.19c9.44,9.45 9.44,24.76 0,34.2l-18.53,18.53c-9.44,9.44 -24.75,9.44 -34.2,0l-12.55,-12.56l52.72,-52.72z" fill="#42434d"></path><path d="M437.744,449.835c2.357,1.675 2.692,5.039 0.646,7.085c-9.44,9.44 -24.75,9.44 -34.2,0l-12.55,-12.56l16.721,-16.722c1.811,-1.811 4.756,-1.801 6.562,0.015c13.777,13.851 18.802,19.327 22.821,22.182z" fill="#585966"></path><path d="M181.735,99.139c-17.686,5.16 -32.435,19.115 -37.689,37.946c-0.967,3.466 -4.048,5.915 -7.646,5.915h-10.3c-4.65,0 -8.283,-3.949 -7.983,-8.589c2.043,-31.789 30.8,-55.323 62.445,-50.892c8.595,1.204 9.504,13.189 1.173,15.62z" fill="#ffd3a6"></path><path d="M223.468,214.135c7.619,1.413 6.271,12.866 -1.478,12.866h-70.99c-4.42,0 -8,3.58 -8,8c0.268,4.377 -0.57,8.886 0.781,14.097c0.643,2.48 -1.218,4.903 -3.781,4.903c-13.218,0 -24,-10.709 -24,-24v-8c0,-4.418 3.582,-8 8,-8c104.587,-0.001 98.345,-0.075 99.468,0.134z" fill="#ffd3a6"></path><path d="M177.24,68.069c-54.083,10.181 -99.257,55.678 -109.166,109.844c-2.947,16.112 -26.677,14.449 -27.041,-1.926c-1.653,-74.464 59.349,-136.074 133.955,-134.972c16.558,0.244 18.526,23.99 2.252,27.054z" fill="#eef7ff"></path></g></g></svg>