<?xml version="1.0" encoding="utf-8"?>
<!-- Generator: Adobe Illustrator 18.1.1, SVG Export Plug-In . SVG Version: 6.00 Build 0)  -->
<svg version="1.1" xmlns="http://www.w3.org/2000/svg" xmlns:xlink="http://www.w3.org/1999/xlink" x="0px" y="0px"
	 viewBox="0 0 960 460" enable-background="new 0 0 960 460" xml:space="preserve">
<g id="Layer_1">
</g>
<g id="Layer_3">
	<g>
		<path fill="#262665" d="M507.3,84.1c-6.7,27.1-9,65.7-6.8,100.5c6-60.2,53.7-72.5,63.7-44.9c8.7,24.5-15.1,48.6,8.3,92.5h-43.8
			c-7.2-23.6,12.5-63.7,9.2-85.8c-3.8-25-43.3,4.5-30.6,85.8h-43.8c9.8-40.8,9.8-107.3,0-148.1H507.3z"/>
		<path fill="#262665" d="M604.8,159.5c-15.1,1.7-22.1-11.1-11.3-20.5c10.1-9,24.1-13.8,37.3-13.8c22.6,0,43.1,14.3,38.3,45.8
			c-2.5,16.3-5.8,34.3,8.7,61.2h-43.8c-1.5-5.2-1.8-10-1.5-15c-6.2,12.3-18,18.5-29.3,18.5c-16.3,0-31.8-12.6-28.1-37.6
			c3.2-22.1,24.5-36.4,44.6-36.4c8.2,0,16.1,2.3,22.6,7.5c3-6.2,5.2-15.5,2.2-25.6c-2.5-8.3-8.7-13-13.5-13c-3.5,0-6.3,2.3-6.7,7.2
			C622.9,154.3,613,158.5,604.8,159.5z M617.6,221.9c7.7,0,17.3-12,20.1-41.4c0-7.7-3.5-11.1-8-11.1c-7.2,0-17,8.7-20.8,24.1
			C604.6,210.7,610.1,221.9,617.6,221.9z"/>
		<path fill="#262665" d="M685.2,128.9h43.9c-6.2,24.8-8.5,42.4-7.2,61.7c1.5-29.6,11.1-61.9,38.6-65c13.1-1.5,20.6,3.8,22.8,10.6
			c3,9.5-4.7,22.1-22.8,24.3c-11.6,1.3-18.6-5.2-16.5-12.6c1.5-4.7,0.3-8.2-3.2-5c-10.8,10.3-19.1,50.7-13.3,83.3c0.5,2,1,4,1.5,6
			h-43.8C695.1,191.4,695.1,169.6,685.2,128.9z"/>
		<path fill="#262665" d="M815.6,235.8c-15.8,0-28.1-11.8-20.5-35.1c5.2-15.8,6.7-29.6,6.2-42.4c-0.7-17-6.7-22.6-16.1-24.5l1.2-5
			c11.1,0,41.8-4.2,49.6-32.1h5c-2.7,11-4.5,21.6-5.7,32.1h16l0.8,5h-17.3c-1.5,17.6-1.2,34.8,1.3,51.6
			c-14.6,2.3-47.9,22.1-32.8,39.8c3,3.7,7.7,5.8,11.8,5.8c2,0,4-0.5,5.7-1.5c8.8-5.5,5.3-21.8-4-28.8c8.7-6.8,16.3-9.6,22.5-9.6
			c12.3,0,18,11.5,10.6,23.8C841.7,228.8,827.6,235.8,815.6,235.8z"/>
		<path fill="#262665" d="M885.3,159.5c-15.1,1.7-22.1-11.1-11.3-20.5c10.1-9,24.1-13.8,37.3-13.8c22.6,0,43.1,14.3,38.3,45.8
			c-2.5,16.3-5.8,34.3,8.7,61.2h-43.8c-1.5-5.2-1.8-10-1.5-15c-6.2,12.3-18,18.5-29.3,18.5c-16.3,0-31.8-12.6-28.1-37.6
			c3.2-22.1,24.5-36.4,44.6-36.4c8.2,0,16.1,2.3,22.6,7.5c3-6.2,5.2-15.5,2.2-25.6c-2.5-8.3-8.7-13-13.5-13c-3.5,0-6.3,2.3-6.7,7.2
			C903.4,154.3,893.5,158.5,885.3,159.5z M898.1,221.9c7.7,0,17.3-12,20.1-41.4c0-7.7-3.5-11.1-8-11.1c-7.2,0-17,8.7-20.8,24.1
			C885.1,210.7,890.6,221.9,898.1,221.9z"/>
	</g>
	<g>
		<path fill="#262665" d="M517.3,344.4c27-21.5,48.1-3.2,29.3,19.8c-15.3,18.6-58.6,16.5-83.5,13.1c-10.3-27.6,51.2-78.4,53.1-89.5
			c0-5.7-8.5-12.3-18-12.3c-12.1,0.2-7.8,7.8-3.2,11.6c10.8,9.2,3.2,21-12,19.3c-14.3-1.7-21.1-10.8-19.8-19.1
			c1.7-10.8,12-16.8,26.8-16.8c8.3,0.2,17.1,3.5,39.6,3.5h21.8c-19.1,22.3-49.1,61.4-57.4,92c2.7,7.3,23.1,9.8,27.3,7.2
			C530.3,367.7,526.8,351.4,517.3,344.4z"/>
		<path fill="#262665" d="M609,380.7c-31.6,0-48.7-24-48.7-54.9c0-30.9,17.1-54.7,48.7-54.7c31.6,0,49.1,23.8,49.1,54.7
			C658,356.8,640.6,380.7,609,380.7z M601.7,374.6c24.3-2.8,37.1-99.7,15.8-97.2C591.5,280.4,576.7,377.5,601.7,374.6z"/>
		<path fill="#262665" d="M666,274.1h43.8c-6.3,25.5-8.7,43.4-7.2,63.4c2-45.4,25.8-66.7,44.3-66.7c8.8,0,16.3,4.8,19.6,14.1
			c8.7,24.5-15.1,48.6,8.3,92.5h-43.8c-7.2-23.6,12.5-63.7,9.1-85.8c-0.8-5.5-3.5-8.2-6.8-8.2c-11.8,0-33.4,33.4-23.6,94H666
			C675.9,336.6,675.9,314.8,666,274.1z"/>
		<path fill="#262665" d="M832.7,380.7c-32.3,0-51.6-24.3-51.6-51.6c0-35.4,26.8-62.6,63.1-57.9c15.6,2,28.3,10.6,28.9,25.3
			c1.3,27.5-39.9,42.4-60.7,42.6c1,18.1,10.1,37.1,27,36.1c12-0.7,5.3-22-4-28.8c26-20.8,44.1-4.3,33.1,14.1
			c-4.5,7.8-13.8,16.8-28.3,19.5C837.9,380.5,835.4,380.7,832.7,380.7z M844.2,300.2c8.2-38.3-19.6-28.6-28.9,6.3
			c-1.7,6.3-3,16.8-3,27.6C828.2,333.3,840.9,315.8,844.2,300.2z"/>
	</g>
	<g display="none">
		<path display="inline" fill="#262665" d="M402.8,154.9c0-2.1-1.3-3.8-3-4.6c-0.5-1.4-1-2.8-1.6-4.3c-0.7-1.7-1.3-3.4-2.1-5
			c-1.6-10.1-5.7-19.7-11.7-27.8c-2-7.7-6.2-15-11-21.7c-0.6-3.8-1.8-7.5-4.1-11c-3.8-6-9.3-10.7-14.9-15.1
			c-2.3-1.8-4.8-3.6-7.4-5.2c-2.3-3.2-5.5-5.5-9.1-7.3c-5.8-5-12.3-9.8-20.2-9.2c-0.5,0-1.1,0.2-1.6,0.4
			c-13.9-8.6-28.5-16-44.5-19.4C258.6,22,245.1,22,231.8,22c-11.7,0-23.2,0.7-34.2,4.8c-8.3,0.6-16.5,1.8-24.4,3.9
			c-1.1-1.7-2.6-3.2-4.2-4.4c-14.4-10.8-35.3-2.4-38.6,15.2c-0.2,0.9-0.1,1.8,0.2,2.6c-1,0.5-1.8,1.2-2.4,2.1c-0.1,0-0.2,0-0.3,0
			c-5.5,1.2-10.1,3.9-14.5,7.1c-4.6,2.1-9.2,4-13.9,6C92.9,62.3,87.2,66,84,72.5c-10.1,4.8-17.5,14.9-25,22.7
			c-1.2,1.2-1.6,2.6-1.5,3.9c-2.2,1.8-3.7,4.4-4.3,7.4c0,0.1,0,0.2,0,0.2c-1.1,0.9-2.2,1.7-3.1,2.6c-3.5,3.5-5.5,7.8-7.4,12.3
			c0,0.1,0,0.1-0.1,0.2c-3.1,1.3-5.8,4.2-6.6,7.2c-0.5,1.6-0.4,3.2,0,4.6c-1.7,2.7-2.9,5.9-3.9,9.2c-2.1,7.5-4.1,15-6.6,22.4
			c-2,5.9-12.6,26.7-7.9,34.8c-2.8,2-3.1,5.3-3.4,9.6c-0.4,5.3-2.4,13-0.4,18.1c0.8,2.1,2.3,3.4,4.1,4c-0.3,0.4-0.6,0.9-1,1.3
			c-4,5.3,4.9,10.4,8.9,5.2c1.5-2,1.4-3.4,4.2-3.7c2.5-0.2,5.2-0.1,7.7-0.1c5.5-0.1,10.9-0.2,16.4-0.2c2.6,0,3.1,0,4.4,2
			c1,1.6,1.5,3,3.1,4.2c3.5,2.5,8.7,8.5,11.8,5.7c2.4-2.1,4-8.5,5.9-13.2c4.2-3.9,9.8-9.1,12.6-11.3c3.6-2.9,9.1-7.1,29.4-20.1
			c12.2-7.8,18.3-11.7,24.7-15.5c6.9-4,35.4-20.3,76.7-33.5c11.1-3.5,24.2-7.2,39.1-10.3c22-4.6,36.1-7.6,55.6-7.2
			c5.7,0.1,32,0.9,54.6,10.3c9.6,4,19.2,9.7,19.2,9.7c4.2,2.5,8,5,11.5,7.5C402.8,160.2,402.8,157.5,402.8,154.9z M89.3,144
			c-7,15.4-9,32.1-9.1,48.9c0,6.6-10.3,6.6-10.3,0c0.1-18.8,2.6-36.9,10.5-54.1C83.1,132.7,92,138,89.3,144z M123.3,71.9
			c-10.4,14.3-21.7,28.9-27.8,45.6c-2.3,6.2-12.2,3.5-9.9-2.7c6.5-17.7,17.8-33,28.8-48.1C118.2,61.4,127.2,66.5,123.3,71.9z"/>
		<path display="inline" fill="#262665" d="M80.9,230.2c0.3-0.4,0.5-0.8,0.8-1.1C81.6,229.4,81.3,229.7,80.9,230.2z"/>
		<path display="inline" fill="#262665" d="M185.8,217.4c-9.9,3.9-19.1,9-28.5,13.8L185.8,217.4z"/>
		<path display="inline" fill="#262665" d="M91.2,240.8c-1-0.2-1.9-0.4-2.9-0.5l3.1,0.8C91.3,241,91.2,240.9,91.2,240.8z"/>
		<path display="inline" fill="#262665" d="M95.6,243.5c1.6,0.2,3.1,0.2,4.7-0.1l-8.9-2.3C92.2,242.4,93.6,243.2,95.6,243.5z"/>
		<path display="inline" fill="#262665" d="M283.9,194.2"/>
		<path display="inline" fill="#262665" d="M403.5,166"/>
		<path display="inline" fill="#262665" d="M263.5,199"/>
		<path display="inline" fill="#262665" d="M283.9,194.2"/>
	</g>
	<path display="none" fill="none" stroke="#262665" stroke-width="6" stroke-miterlimit="10" d="M18.8,243.6
		c-2.1-10-3.7-23-3.1-38.1c0.9-21,5.9-37.9,10.3-49.4c4.6-12,10.7-31.4,25.8-52.5c5-7,13.5-18.7,27.8-30.4
		c9.3-7.6,18-12.6,24.7-16.5c10-5.8,18.9-10,25.8-12.9c7.7-3.4,16.3-6.7,25.8-9.8c8.8-2.8,17.1-5,24.7-6.7
		c11.8-2.5,25.4-4.6,40.7-5.7c12.9-0.9,24.7-0.8,35.2-0.2c7.8,1.2,17.8,3.2,29.2,6.9c14.2,4.5,23.7,10,34,14.4
		c20.5,8.8,33.1,20.3,40.2,27.8c6.8,7.2,11.8,14.4,15.5,20.6c6.1,9.8,12.6,21.9,18.5,36.1c5.8,14,10.5,25,13.1,36.2"/>
	<path display="none" fill="none" stroke="#262665" stroke-width="6" stroke-miterlimit="10" d="M130.8,43.8c0-3.7,0.6-9.4,4.5-14.4
		c7.6-9.9,23.5-11.6,32.6-5.2c2.7,1.9,4.3,4.1,5.2,5.5"/>
	<path display="none" fill="none" stroke="#262665" stroke-width="6" stroke-miterlimit="10" d="M404.8,163.4"/>
	<path display="none" fill="none" stroke="#262665" stroke-width="6" stroke-miterlimit="10" d="M71.4,231.2
		c4.2,3.2,17.8,12.2,27.1,14.2c1.5,0.3,6.9,1.4,14.1,1c6-0.3,10.9-1.6,14.4-2.7c9.2-2.9,19-6.4,29.2-10.6c6.4-2.7,12.5-5.4,18.2-8.2
		c10.4-4.8,22.7-9.6,36.7-13.7c11.4-3.3,22-5.6,31.6-7.2c9.9-2,21.7-3.7,35-4.1c18.6-0.6,34.6,1.5,47,4.1c11.3,2.6,22.7,5.3,34,7.9
		c8.1,2.3,17.4,5.6,27.5,10.3c9.5,4.5,17.6,9.2,24.4,13.7c2.1,0.3,9,1,14.8-3.4c3.6-2.8,5.1-6.4,6.5-10c1.3-3.3,3.1-9.1,2.7-16.8
		c-0.1-2.6-0.5-6.2-2.1-10.3c-1-2.7-2.3-4.9-3.4-6.5c-2.5-3.4-5.5-7-8.9-10.6c-4.9-5.2-14.5-16.6-18.9-20"/>
	<path display="none" fill="none" stroke="#262665" stroke-width="6" stroke-miterlimit="10" d="M70,249.8"/>
	<path display="none" fill="none" stroke="#262665" stroke-width="6" stroke-miterlimit="10" d="M72.4,252.9"/>
	<path display="none" fill="none" stroke="#262665" stroke-width="6" stroke-miterlimit="10" d="M72.4,252.9c-1-1.8-3.3-5.9-7.6-10
		c-3.1-3-6.2-5-8.7-6.4c-1-0.6-2.1-1-3.2-1.3c-2.9-0.8-7.1-1.5-12.1-0.9c-6.5,0.7-11.4,3.3-14,5c-0.4,0.3-0.8,0.6-1.2,0.9
		c-2.3,1.8-4.5,3.7-6.8,5.5c-1.1,0.9-2.1,2-2.9,3.2c-2.3,3.5-4.8,7.9-7,13.3c-2.1,5.3-3.4,10.1-4.1,14.1c-1.2,5.4-2.2,13.6-1,23.3
		c1.4,11.1,5.1,19.6,7.9,24.7c2.3,3.8,6.4,9.6,13,14.8c5.7,4.4,11.2,6.9,15.1,8.2c4.3,1.3,11.2,2.9,19.6,2.4
		c7.5-0.4,13.5-2.2,17.5-3.8c5.1-2.3,8-5.1,9.6-6.9"/>
	<path display="none" fill="none" stroke="#262665" stroke-width="6" stroke-miterlimit="10" d="M416.3,235.8
		c0.4,0.3,0.8,0.6,1.2,0.9c2.3,1.8,4.5,3.7,6.8,5.5c1.1,0.9,2.1,2,2.9,3.2c2.3,3.5,4.8,7.9,7,13.3c2.1,5.3,3.4,10.1,4.1,14.1
		c1.2,5.4,2.2,13.6,1,23.3c-1.4,11.1-5.1,19.6-7.9,24.7c-2.3,3.8-6.4,9.6-13,14.8c-5.7,4.4-11.2,6.9-15.1,8.2
		c-2.1,0.6-4.8,1.3-7.9,1.8"/>
	<g display="none">
		<path display="inline" fill="none" stroke="#262665" stroke-width="6" stroke-miterlimit="10" d="M57.1,280.2
			c-2.1-7.1-7.2-12.4-12.7-13c-7.9-0.9-17.8,7.9-17.5,21.3"/>
	</g>
	<g display="none">
		<path display="inline" fill="none" stroke="#262665" stroke-width="6" stroke-miterlimit="10" d="M403.7,267.2
			c7.9-0.9,17.8,7.9,17.5,21.3"/>
	</g>
	<g display="none">
		<path display="inline" fill="none" stroke="#262665" stroke-width="6" stroke-miterlimit="10" d="M403.7,267.2"/>
	</g>
	<path display="none" fill="none" stroke="#262665" stroke-width="6" stroke-miterlimit="10" d="M396.4,272.5"/>
	<path display="none" fill="none" stroke="#262665" stroke-width="6" stroke-miterlimit="10" d="M88.3,282.6"/>
	<path display="none" fill="none" stroke="#262665" stroke-width="6" stroke-miterlimit="10" d="M401,274.5
		c0.9,4.1-5.7,9.5-4.6,22.1c0.7,7.9,3.6,12.1,3.8,22.5c0.1,3.3-0.3,7-1.3,11.6c-5.4,23.5-22.1,38.3-33,47.9
		c-17.7,15.7-35.1,22-49.4,27.3c-8.1,3-30.5,10.5-60.8,11.8c-19.3,0.8-48.3-0.6-80.3-12.4c-23.3-8.5-39.3-19.2-47.4-24.7
		c-8.5-5.8-17.1-11.7-26.3-21.6c-6.5-7.1-21.1-22.9-21.1-32.4"/>
	<path display="none" fill="none" stroke="#262665" stroke-width="6" stroke-miterlimit="10" d="M248.8,278.1"/>
	
		<ellipse display="none" fill="none" stroke="#262665" stroke-width="6" stroke-miterlimit="10" cx="201.1" cy="286.9" rx="9.8" ry="22.1"/>
	
		<ellipse display="none" fill="none" stroke="#262665" stroke-width="6" stroke-miterlimit="10" cx="303.1" cy="286.9" rx="9.8" ry="22.1"/>
	<path display="none" fill="none" stroke="#262665" stroke-width="6" stroke-miterlimit="10" d="M340.2,317.3
		c3.2,11.7-13.8,28.3-16,30.4c-10.5,10.3-21.9,13.6-34,17c-13,3.6-37.4,10.2-67.5,2.6c-12.9-3.3-33.9-8.6-47.4-27.3
		c-5.1-7.1-10.4-14.4-8.8-21.1"/>
	<path display="none" fill="none" stroke="#262665" stroke-width="6" stroke-miterlimit="10" d="M219,208.9c0.3,0.1,0.6,0.3,0.9,0.5
		c10.9,5.5,20,10.1,25.2,16.7c8.2,10.2,6.8,25,6.4,30c-1,11.3-5.2,15.5-2.7,18.2c4.4,4.8,22.5-2.9,34.5-13.4
		c5.8-5.1,13.7-12,15.6-23.7c1.9-11.8-3.3-21.2-5-24c-0.4-0.7-4.7-8-12.7-13.4"/>
	<path display="none" fill="none" stroke="#262665" stroke-width="6" stroke-miterlimit="10" d="M343.6,208.4
		c9.6,5.8,14.8,13.8,19.9,21.6c2.2,3.4,5.6,8.7,8.4,16.4c1.9,5.3,6,17.2,3.7,31.2c-0.9,5.4-3.1,13.6-5.2,20
		c-2.5,7.7-4,10.3-2.9,11.2c2.4,2.1,15.1-7.3,23.8-17.7c1.6-1.9,8.9-10.8,13.6-24.5c2-5.7,3.5-10,3.4-16.1
		c-0.1-5.7-1.5-10.5-3.9-18.5"/>
	<path display="none" fill="none" stroke="#262665" stroke-width="6" stroke-miterlimit="10" d="M79.4,236.6
		c-4.8,5.2-7.4,13.6-7.9,15.3c-2.7,8.8-2.3,16.4-1.7,20.9c0.7,5.3,2.3,17.2,12.4,26.6c7.7,7.2,16,8.8,23.3,10.3
		c2.1,0.4,7.4,1.5,8.1,0c0.9-1.9-8.2-4.8-11.5-12.7c-2.8-6.6-0.3-13.5,2.6-21.3c1.1-3,4.2-10.8,11.3-19.1c7.7-8.9,16.3-14,22.3-16.8
		"/>
	<g display="none">
		<g display="inline">
			<path fill="none" stroke="#262665" stroke-miterlimit="10" d="M41,254.5"/>
		</g>
	</g>
	<g display="none">
		<g display="inline">
			<path fill="none" stroke="#262665" stroke-miterlimit="10" d="M34.8,252.4"/>
		</g>
	</g>
	<path display="none" fill="#262665" d="M207.9,277.4c-0.2-0.7-0.6-1.4-1.2-2c0.5-1.2,1-2.4,1.5-3.7c2.5-6.1-7.5-8.8-9.9-2.7
		c-2.6,6.4-7.3,14.7-6.7,21.8c0.2,2.4,1.4,5.1,3.6,6.4c0,0,0,0,0,0c-0.1,0.2-0.2,0.4-0.3,0.6c-1.2,1.5-1.3,4-1.3,5.8
		c0,3.3,3.3,5.9,6.5,5c4.4-1.2,7.1-4.9,7.4-9.4c0.7-0.6,1.2-1.5,1.4-2.7C210.1,290,209.9,283.8,207.9,277.4z"/>
	<path display="none" fill="#262665" d="M310,273.5c-0.1-2-1.2-3.5-2.7-4.3c-0.6-5.7-9.9-5.3-10.3,0.9c-0.5,7.9-1.2,15.7-2.2,23.5
		c-0.5,3.8-0.5,8.5,2.3,10.9c0.1,5.6,8.8,7.6,10,1.6c0.2-0.9,0.3-1.7,0.5-2.6c1.4-1.7,2.3-4.1,2.5-6.4
		C310.7,289.4,310.2,281.3,310,273.5z"/>
</g>
<g id="Layer_4">
	<path fill="#FFCC59" d="M433.1,268.8c-0.3-1.2-1-2.1-1.9-2.7c-0.3-4.9-1.3-9.6-3.1-14.2c-0.9-2.2-2.9-3.5-4.9-3.6
		c-0.6-1.8-1.2-3.5-2-5.2c-1-2-3.2-2.6-5.2-2.4c-0.2-0.8-0.5-1.5-0.9-2.1c-0.8-1.4-2.2-2.4-4.3-2.4c-1.1,0-2.1,0.3-2.8,0.8
		c-1.4,0.7-2.3,2.1-2.1,4.3c0,0.1,0,0.1,0,0.2c0,0.5,0.1,1,0.2,1.5c0.4,1.7,1,3.1,1.7,4.4c-0.9,0.6-1.6,1.5-2,2.7
		c-4.7,15.6-11.7,29.5-18.9,44c-0.5,1.1-1.1,2.3-1.5,3.5c-3.4,0.9-6.4,3.5-9,5.8c-3.4,3-7.4,4.4-11.6,5.2c3.5-8,6.7-17,5.7-25.4
		c1.1-0.8,2-2.1,2.1-3.8c0.1-1.2,0.1-2.4,0.1-3.5c0.1-5.4-0.1-10.9-0.5-16.3c-0.1-1.8-1.2-3.3-2.5-4.2c-0.1-2.5-0.5-4.8-1.5-7.2
		c-1-2.5-2.6-4.9-2.9-7.5c0-0.4-0.1-0.8-0.1-1.2c-0.2-2.7-1.9-4.2-3.9-4.7c-0.2-2-0.5-4-1.4-5.9c-2.9-6.3-9-11.1-14.6-14.8
		c-6.9-4.7-16-5.8-24-7.6c-8.5-1.9-17-3.6-25.5-5.1c-0.8-0.8-2-1.4-3.5-1.4c-5.1,0-6.2,6.2-3.3,8.9c0.4,0.7,1,1.3,1.9,1.7
		c-0.2,1.1-0.1,2.3,0.7,3.5c2.1,3.3,4.2,5.7,4.6,9.6c0.4,3.7,1.6,7.1,2.4,10.8c1.6,8.1-4,12.3-6.6,19.1c-0.1,0.3-0.2,0.5-0.3,0.8
		c-1,0.3-1.9,1.1-2.5,2.5c-1.9,4.4-6,5.9-10.2,7.6c-4.2,1.8-7.6,4-11.3,6.7c-2.1,1.5-4.3,2.7-6.7,3.5c-1.8-1.9-5.5-1.8-7.4,0
		c-0.4,0.3-0.7,0.7-1,1c-2.5-0.4-5.2-1.4-7.6-1.4c0.9-3,1.7-6.1,2.6-9.1c1.6-5.1,3-10.4,2.7-15.8c-0.4-6.2-2.7-12.3-4.5-18.2
		c-0.7-2.5-2.6-3.6-4.5-3.6c-1.9-2.7-4.2-5.3-6.8-7.5c-2.6-2.2-5.5-4.7-9-5.2c-0.6-0.8-1.5-1.4-2.9-1.6c-7.7-1.1-14.3,1.7-21.4,4.3
		c-7.3,2.6-14.5,5.3-21.7,8.2c-14.1,5.6-28.4,11.4-41.9,18.4c-5.4,2.8-10.6,6.1-15,10.3c-4.7,4.5-7.6,10-10.2,15.9
		c-1.1,0.3-2.1,1-2.8,2.2c-2,3.5-3.3,7.4-3.3,11.5c0,0.6,0,1.1,0.1,1.7c-2,6.9-2.5,13.9,2.5,16.3c0.1,0.7,0.4,1.4,0.9,2.1
		c1.1,1.4,1.9,2.9,2.4,4.5c-2.9-0.7-5.8-0.9-8.9-1.4c-5.4-0.8-10-2.8-14.8-5.1c-1.6-0.8-3.1-1.2-4.8-1.1c-0.1,0-0.2,0-0.3,0
		c0-0.1-0.1-0.2-0.1-0.3c-0.1-0.6-0.2-1.2-0.3-1.7c-0.9-3.6-3.2-5.8-6.5-6.3c-0.8-2.7-2.2-5.5-3.1-8c-3.1-8.6-1.8-17.9-2.1-26.9
		c4.9-1.5,4.3-9.9-1.6-9.9c-0.1,0-0.2,0-0.3,0c-2.3-5.1-6.5-10.1-11.3-11.2c-7.1-1.7-18.3-3.2-23.5,3.2c-0.1,0.1-0.1,0.1-0.1,0.2
		c-0.1,0-0.2,0-0.3,0.1c-4.7,0.7-7.1,3.1-10.1,6.6c-3.8,4.4-8.4,9.1-9.6,14.5c-0.3,0.3-0.6,0.7-0.9,1.1c-4,7-4.5,17.2-5.3,25.1
		c-0.4,3.7-0.9,8.8,0.2,12.9c-1.7,2.2-1.9,5.7,1.1,7.5c-1.4,1.4-2,3.5-0.6,5.8c4.4,7.2,9.7,13.6,16,19.2c0.6,1.2,1.6,2.1,2.7,2.9
		c1.4,1.7,3,3.3,5.2,4.7c5.2,3.6,11.6,6.8,17.9,7.6c7.3,0.9,14.3-1.8,21.5-1.7c2.6,0,4.3-1.7,4.8-3.7c2.4-0.5,4.6-1.3,6.3-2.8
		c1.1-0.9,1.9-2.1,2.5-3.4c0.1-0.3,0.3-0.6,0.4-1c0.8,0.1,1.7,0.2,2.6,0.3c9.7,12.6,18.9,28.1,33,36c1.1,0.6,2.2,1.2,3.3,1.8
		c0.8,0.7,1.7,1.5,2.6,2.1c3.4,2.5,7,4.5,10.9,6.1c0.7,0.4,1.4,0.7,2.1,1.1c3.8,7.6,11.6,10.4,19.5,11.9c0.6,0.9,1.4,1.7,2.7,2.2
		c3.5,1.2,7.7,3.1,11.7,3.6c5.9,4.4,15.2,5.8,21.5,7.4c13.4,3.5,27.3,5.3,41.1,5.7c13.5,0.3,27.1-0.8,40.4-3
		c0.8-0.1,1.5-0.3,2.3-0.4c0.6,0.5,1.3,0.8,2.1,1c2.6,0.4,5.1,0.6,7.6-0.3c1.4-0.5,2.7-1.3,3.9-2c1.5-0.4,3.1-0.8,4.6-1.2
		c3.1-0.8,6.6-1.3,9-3.6c0.2-0.2,0.3-0.4,0.5-0.5c0.8,0.2,1.6,0.3,2.5,0.1c12.1-2.7,23.3-8.4,34.1-14.3c3.2-1.8,6.1-4,8.9-6.4
		c2.2-1.4,4.2-3,6.3-4.5c4.7-3.4,9.5-6.4,12.7-11.3c0.2-0.3,0.4-0.7,0.5-1c1.8-1.5,3.5-3.1,4.9-5c1.2-1.5,2.3-3,3.4-4.6
		c1-0.2,2-0.5,3-0.8c0-0.1,0-0.2,0-0.3c0.5-3.5,2.6-7.2,5.1-9.7c2.8-2.7,6.1-3.3,9.7-2.8c1.3-0.7,2.7-1.2,4.1-1.5
		c-0.3-0.4-0.6-0.8-1-1.1c2.9-0.7,5.5-2.2,7.5-4.2c1-0.4,2-0.7,3-1.2c4.4-2.1,7.6-5.5,9.8-9.6c0.8-0.5,1.5-1,2.3-1.6
		c1.4-0.4,2.6-1.3,3.2-2.8c1.9-1.9,3.5-4.1,4.4-6.5c2.6-7.1,4-15.8,5-23.2C437.7,283.5,434.9,276,433.1,268.8z M196.3,306.8
		c-0.9-0.3-1.7-0.4-2.5-0.2c-0.9-3.3-2.1-6.4-3.7-9.1c1.3-2,1.3-4.4,1.5-6.9c0.3-4,0.6-8,1.3-12c0.6-3.3,0.9-9.5,2.8-12.2
		c0.2-0.4,0.3-0.6,0.3-0.8c0.9,0,1.9,0.1,2.8,0.2c1.8,0.1,3.7,0.3,5.5,0.4c1.5,0.1,3.2,0.4,4.8,0.4c0.4,4.7,1.8,9.1,4.2,13.2
		c0.2,1.1,0.3,2.2,0.5,3.2C213.6,296.1,209.9,312,196.3,306.8z M300.5,308.3c-0.8,0.3-1.5,0.6-2.2,1c-1.8-2.1-3.3-4.3-4.4-6.7
		c-2.3-5.2-1.7-11.8-1.7-17.4c0-6.1,0.6-12,2.7-17.7c0.2-0.5,0.3-1,0.3-1.5c0.3-0.3,0.5-0.6,0.8-0.9c1,0.5,2.1,0.8,3.4,0.8
		c3.7,0.2,5.8-0.5,8.1,3.1c1.9,3,2.2,6.8,3.7,10c0.6,1.4,1.4,2.6,2.4,3.7C312.5,291.7,309.6,305,300.5,308.3z"/>
	<path fill="#E66625" d="M427.9,194c-3.3-4.5-8-8.2-12.1-12.1c-1.9-3.8-4.3-7.4-7.2-9.8c-1.4-1.2-3.2-1.5-5-1.7
		c-0.8-0.7-1.6-1.4-2.5-2.1c-0.3-0.8-0.6-1.6-1-2.4c0-3.1,0-6.1,0-9.2c0-2.1-1.3-3.7-2.9-4.5c-0.5-1.4-1-2.8-1.5-4.2
		c-0.7-1.7-1.3-3.3-2.1-4.9c-1.6-9.9-5.6-19.3-11.5-27.4c-2-7.6-6.1-14.7-10.9-21.4c-0.6-3.7-1.8-7.3-4-10.8
		c-3.8-5.9-9.2-10.5-14.7-14.8c-2.2-1.7-4.7-3.6-7.3-5.1c-2.3-3.2-5.4-5.5-8.9-7.2c-5.7-4.9-12.1-9.6-19.9-9c-0.5,0-1.1,0.2-1.6,0.4
		c-13.6-8.5-28-15.7-43.8-19.1C258.1,26,244.9,26,231.8,26c-11.5,0-22.9,0.7-33.6,4.7c-8.2,0.6-16.2,1.8-24,3.8
		c-1-1.7-2.6-3.1-4.2-4.3c-14.2-10.6-34.7-2.3-38,14.9c-0.2,0.8-0.1,1.7,0.2,2.6c-1,0.4-1.8,1.2-2.3,2.1c-0.1,0-0.2,0-0.3,0
		c-5.4,1.1-9.9,3.8-14.2,7c-4.5,2-9.1,4-13.7,5.9c-6.7,2.8-12.2,6.5-15.4,12.9c-9.9,4.7-17.2,14.6-24.6,22.4
		c-1.2,1.2-1.6,2.6-1.5,3.8c-2.2,1.8-3.7,4.3-4.2,7.3c0,0.1,0,0.1,0,0.2c-1.1,0.8-2.2,1.7-3.1,2.6c-3.5,3.4-5.4,7.7-7.2,12.1
		c0,0.1,0,0.1-0.1,0.2c-3.1,1.2-5.7,4.1-6.5,7.1c-0.4,1.6-0.4,3.2,0,4.6c-1.7,2.7-2.9,5.8-3.8,9c-2.1,7.4-4,14.8-6.5,22.1
		c-2,5.8-12.4,26.2-7.8,34.3c-2.7,2-3.1,5.2-3.4,9.5c-0.4,5.2-2.3,12.8-0.4,17.8c0.8,2,2.3,3.4,4,4c-0.3,0.4-0.6,0.9-0.9,1.3
		c-4,5.2,4.8,10.2,8.8,5.1c1.5-2,1.4-3.4,4.2-3.6c2.5-0.2,5.1-0.1,7.6-0.1c5.4-0.1,10.8-0.2,16.1-0.2c2.6,0,3,0,4.3,1.9
		c1,1.5,1.5,3,3.1,4.1c3.5,2.5,7.9,1.5,11-1.1c3.3-2.9,5.6-7.1,8.7-10.3c0.3-0.3,0.7-0.7,1-1c-0.8,1.6-1.5,3.2-1.8,5
		c-0.5,2.5,0.7,5.7,3.5,6.2c2.2,0.4,4.4,0.8,6.6,1.2c0.8,1.5,2.3,2.4,4.3,2.6c1.6,0.2,3.1,0.2,4.6-0.1c20,2.3,38.1-2.9,56.1-12
		c9.3-4.7,18.4-9.8,28.1-13.6c0.4-0.2,0.8-0.3,1.2-0.4c4.6-1,9.2-2.1,13.7-3.4c2.9-0.8,9.2-2.3,14.1-4.7c0.7,0.4,1.7,0.7,2.8,0.5
		c0.4,0,0.9-0.1,1.3-0.2c0,0,0,0,0,0c0,0,0.1,0,0.1,0c2.2-0.4,4.8-1.4,7.1-2.7c5.1-1.9,10.3-3.5,15.7-4.2c6.9-0.9,13.4-0.5,19.8-3.3
		c0.4,0.2,0.8,0.5,1.2,0.7c3.2,1.4,7,0.8,10.5,0.8c5.2-0.1,10.5-0.1,15.7-0.1c10.8,0.1,21.6,0.7,32.4,1.6c1.1,0.1,2.3,0.2,3.5,0.3
		c9,2.8,18.1,5.8,27.4,6.2c1.3,1.4,2.8,2.6,4.6,3.5c4.6,2.4,9.9,1.9,14.5,4c4.6,2.1,7.7,4.7,12.8,5.5c1.2,0.2,2.6,0.3,4,0.4
		c2.9,4.5,7.1,5.7,12,7.5c4.8,1.8,8,5.8,13.6,3.9c4.3-1.5,10.3-5,13.2-8.7c3.3-4.3,3.5-10.5,3.6-15.7
		C431.5,204.1,431.3,198.6,427.9,194z M377.2,152.4c0.2-0.3,0.4-0.6,0.6-0.9c1.6,0.9,3,2.1,4.2,3.4
		C380.5,154,378.8,153.2,377.2,152.4z"/>
	<g>
		<path fill="#262665" d="M207.2,272.5c-0.1-4.5-6.8-7.5-9.4-2.6c-5.6,10.3-6.6,22.3-2.3,33.3c1.3,3.3,4.2,4.4,7.4,3
			c4.2-1.8,5.9-6.2,6.5-10.5c0.9-6.1,1.1-12.3,1.6-18.4C211.3,274.3,209.4,272.7,207.2,272.5z"/>
		<path fill="#262665" d="M309.2,270.5c2-5.9-6.8-8.6-9.4-3.5c-2.2,0.2-4.2,1.2-5.5,3.2c-1.8,2.6-1.6,6.4-1.7,9.5
			c-0.2,4.2-0.1,8.3,0.1,12.4c0.1,1.6,0.8,2.8,1.7,3.6c-0.1,4.8,0.5,9.5,4,13.2c2.2,2.4,6.4,1.8,8-1c3.2-5.7,3.1-12,3.3-18.3
			c0.1-5.1,1.5-12.4-0.9-17.5C308.9,271.6,309.1,271,309.2,270.5z"/>
		<path fill="#262665" d="M293.7,223.2c-0.2-1.1-0.4-2.1-0.6-3.2c-1.2-4.8-3.2-10.7-7.9-12.9c0.7-1.5,0.6-3.2-0.7-5.3
			c-2.2-3.8-6-2.9-9.6-2.1c-4.9,1-9.9,1.9-14.9,2.7c-5.1,0.8-10.3,1.3-15.4,1.6c-4.8,0.3-9.6,2.2-14.2,2.2c-6.5-0.1-6.5,10,0,10.1
			c1.7,0,3.3-0.2,4.9-0.6c0.2,0.5,0.6,1,1,1.5c0.8,1,1.9,1.8,3.3,2.5c0.1,0.2,0.2,0.4,0.3,0.6c0.3,0.3,0.5,0.7,0.8,1c0,0,0,0,0,0
			c0,0,0,0,0,0c1.9,2.5,3.8,4.9,5.9,7.2c0.7,0.8,1.7,1.3,2.8,1.4c1.5,3.2,2.8,6.4,3.3,9.8c-0.1,0.3-0.2,0.6-0.3,0.9
			c-0.4,1.7-0.1,3.1,0.6,4.1c0,0.5,0,1-0.1,1.5c-0.3,3.5-0.8,6.9-0.8,10.4c0,2.8,0.5,6.7-2.3,8.4c-5.7,3.4-0.7,11.5,5.1,8.8
			c2-0.9,4.4-0.8,6.5-1.6c1.9-0.7,3.5-1.8,5.1-3c1-0.8,1.9-1.6,2.8-2.4c0.4,0,0.7,0,1.1-0.1c5.4-1.2,8.9-3.4,12.7-7.4
			c4.3-4.6,9-9.1,11.3-15.1C297.2,237.1,296.2,230,293.7,223.2z"/>
		<path fill="#262665" d="M399.3,231.8c-2.2-2.4-4.9-3.6-7.9-4.7c-4.7-1.8-9.3-3.7-13.8-5.9c-3.9-1.8-9.3-5.5-13.9-4.7
			c-0.7-0.3-1.4-0.5-2.3-0.5c-0.2,0-0.3,0-0.5,0c-0.4-2.1-2-3.9-4.8-3.9c-6.5,0-6.5,10.1,0,10.1c0.2,0,0.3,0,0.5,0
			c0.2,0.8,0.5,1.6,1.1,2.3c0.4,4.9,5,10,7.1,13.8c7.8,14.4,15.1,34.7,6.7,50.1c-1,1.9-0.8,3.6,0.1,5c-0.7,0.6-1.2,1.4-1.5,2.3
			c-6.4,0.1-6.4,10.1,0.1,10.1c2.5,0,4.1-1.5,4.6-3.4c2.6,0,4.1-1.7,4.6-3.6c1.4-0.6,2.3-1.8,2.7-3.2c0.7-0.2,1.5-0.7,2.1-1.5
			c9.6-12.4,19.9-25.6,22.2-41.8C407.4,245.2,404.2,237.1,399.3,231.8z"/>
		<path fill="#262665" d="M114.5,245.4c-3,2.9-10.3,1.3-14,0.7c-3.9-0.7-10.2-1.3-12.9-4.6c-0.6-1.8-2.1-3.1-4.6-3.1
			c-1.7,0-2.9,0.7-3.8,1.7c-1.6,1.4-2.3,3.7-0.8,6c0.2,0.3,0.4,0.5,0.5,0.8c-4.2,2.8-6.6,6.2-6.5,11.5c0.2,6.3,1.4,12.7,2.5,18.9
			c0.4,2.6,0.9,5.2,1.9,7.6c1.1,2.6,2.9,4.7,3.7,7.5c0.6,2.3,0.8,4.3,2.4,6.3c1.7,2.1,4.2,2.7,6.2,4.4c2.3,1.9,4.9,1.7,6.6,0.3
			c1.8,1.3,4,2.1,5.8,3.6c5,3.9,12-2.5,7.2-7.2c-1.6-1.5-4.1-3.9-6.9-6.1c-0.2-2.1,0.5-4.9,1-6.6c1.6-5.7,4.2-10.9,5.4-16.7
			c0.3-1.3,0-2.5-0.6-3.6c0.4-0.5,0.8-1.1,1.2-1.5c4.8-5.6,12.4-6.7,14.1-14.9C124,245.5,118.3,241.7,114.5,245.4z"/>
	</g>
	<path fill="none" stroke="#262665" stroke-width="6" stroke-miterlimit="10" d="M22.2,244.1c-2-9.8-3.7-22.6-3-37.5
		C20.1,186,25,169.3,29.3,158c4.6-11.9,10.5-30.9,25.3-51.7c4.9-6.9,13.3-18.4,27.4-29.9c9.2-7.5,17.8-12.4,24.3-16.2
		c9.9-5.7,18.6-9.8,25.3-12.7c7.5-3.3,16-6.6,25.3-9.6c8.6-2.8,16.8-4.9,24.3-6.6c11.6-2.5,25-4.6,40-5.6
		c12.7-0.8,24.3-0.8,34.6-0.2c7.6,1.2,17.5,3.2,28.7,6.8c14,4.4,23.3,9.9,33.5,14.2c20.2,8.6,32.6,20,39.5,27.4
		c6.7,7.1,11.6,14.1,15.2,20.3c6,9.7,12.4,21.5,18.2,35.5c5.7,13.8,9.6,26.5,12.2,37.5c-4.1-3.1-9-6.5-14.6-9.8
		c0,0-9.4-5.6-18.9-9.5c-22.2-9.3-48.1-10-53.7-10.1c-19.2-0.4-33.1,2.5-54.7,7.1c-14.7,3.1-27.6,6.7-38.5,10.1
		c-40.7,12.9-68.8,29-75.5,32.9c-6.3,3.7-12.3,7.5-24.3,15.2c-20,12.8-25.4,16.9-28.9,19.8c-8.7,7.1-15.4,13.9-20.3,19.3l-4.3,3.6"
		/>
	<path fill="none" stroke="#262665" stroke-width="6" stroke-miterlimit="10" d="M132.4,47.5c0-3.6,0.6-9.3,4.4-14.2
		c7.5-9.7,23.1-11.4,32.1-5.1c2.6,1.8,4.2,4,5.1,5.4"/>
	<path fill="none" stroke="#262665" stroke-width="6" stroke-miterlimit="10" d="M80.7,236.3c4.1,3.2,10.8,7.5,19.9,9.5
		c1.4,0.3,6.8,1.4,13.9,1c5.9-0.3,10.7-1.5,14.2-2.7c9-2.8,18.7-6.3,28.7-10.5c6.3-2.6,12.3-5.4,17.9-8.1
		c10.3-4.7,22.4-9.5,36.2-13.5c11.2-3.3,21.7-5.5,31.1-7.1c9.7-2,21.3-3.7,34.5-4.1c18.3-0.5,34,1.5,46.3,4.1
		c11.2,2.6,22.3,5.2,33.5,7.8c8,2.3,17.2,5.5,27,10.1c9.4,4.4,17.4,9.1,24,13.5c2,0.3,8.9,1,14.5-3.4c3.6-2.8,5-6.3,6.4-9.8
		c1.3-3.2,3.1-8.9,2.7-16.6c-0.1-2.5-0.5-6.1-2-10.1c-1-2.7-2.3-4.8-3.4-6.4c-2.5-3.3-5.4-6.9-8.8-10.5c-4.8-5.1-9.6-9.2-13.9-12.5
		c-0.4-0.6-0.8-1.2-1.3-1.9"/>
	<path fill="none" stroke="#262665" stroke-width="6" stroke-miterlimit="10" d="M72.6,250.2"/>
	<path fill="none" stroke="#262665" stroke-width="6" stroke-miterlimit="10" d="M74.9,253.2"/>
	<path fill="none" stroke="#262665" stroke-width="6" stroke-miterlimit="10" d="M74.9,253.2c-1-1.8-3.2-5.8-7.4-9.8
		c-3-2.9-6.1-4.9-8.6-6.3c-1-0.6-2.1-1-3.2-1.3c-2.8-0.7-7-1.4-11.9-0.9c-6.4,0.7-11.2,3.2-13.8,4.9c-0.4,0.3-0.8,0.6-1.2,0.9
		c-2.2,1.8-4.5,3.6-6.7,5.4c-1.1,0.9-2.1,1.9-2.8,3.1c-2.3,3.5-4.8,7.8-6.9,13c-2.1,5.2-3.3,9.9-4.1,13.9c-1.1,5.3-2.2,13.3-1,23
		c1.4,10.9,5.1,19.3,7.8,24.3c2.2,3.8,6.3,9.4,12.8,14.5c5.6,4.4,11,6.8,14.9,8.1c4.3,1.3,11,2.8,19.3,2.4
		c7.4-0.4,13.3-2.2,17.2-3.7c5-2.2,7.9-5,9.5-6.8"/>
	<path fill="none" stroke="#262665" stroke-width="6" stroke-miterlimit="10" d="M413.3,236.4c0.4,0.3,0.8,0.6,1.2,0.9
		c2.2,1.8,4.5,3.6,6.7,5.4c1.1,0.9,2.1,1.9,2.8,3.1c2.3,3.5,4.8,7.8,6.9,13c2.1,5.2,3.3,9.9,4.1,13.9c1.1,5.3,2.2,13.3,1,23
		c-1.4,10.9-5.1,19.3-7.8,24.3c-2.2,3.8-6.3,9.4-12.8,14.5c-5.6,4.4-11,6.8-14.9,8.1c-2.1,0.6-4.7,1.3-7.8,1.8"/>
	<g>
		<path fill="none" stroke="#262665" stroke-width="6" stroke-miterlimit="10" d="M59.9,280.1c-2.1-6.9-7.1-12.2-12.5-12.8
			c-7.8-0.9-17.6,7.8-17.2,20.9"/>
	</g>
	<g>
		<path fill="none" stroke="#262665" stroke-width="6" stroke-miterlimit="10" d="M401,267.3c7.8-0.9,17.6,7.8,17.2,20.9"/>
	</g>
	<g>
		<path fill="none" stroke="#262665" stroke-width="6" stroke-miterlimit="10" d="M401,267.3"/>
	</g>
	<path fill="none" stroke="#262665" stroke-width="6" stroke-miterlimit="10" d="M393.7,272.5"/>
	<path fill="none" stroke="#262665" stroke-width="6" stroke-miterlimit="10" d="M90.6,282.5"/>
	<path fill="none" stroke="#262665" stroke-width="6" stroke-miterlimit="10" d="M398.3,274.5c0.9,4-5.6,9.4-4.5,21.7
		c0.7,7.7,3.5,11.9,3.8,22.2c0.1,3.2-0.3,6.9-1.3,11.4c-5.3,23.1-21.7,37.6-32.4,47.1c-17.4,15.4-34.5,21.7-48.7,26.9
		c-8,2.9-30,10.4-59.8,11.7c-19,0.8-47.5-0.6-79.1-12.2c-22.9-8.4-38.6-18.9-46.6-24.3c-8.4-5.7-16.8-11.5-25.8-21.3
		c-6.4-7-20.8-22.6-20.8-31.9"/>
	<ellipse fill="none" stroke="#262665" stroke-width="6" stroke-miterlimit="10" cx="201.6" cy="286.7" rx="9.6" ry="21.8"/>
	<ellipse fill="none" stroke="#262665" stroke-width="6" stroke-miterlimit="10" cx="302" cy="286.7" rx="9.6" ry="21.8"/>
	<path fill="none" stroke="#262665" stroke-width="6" stroke-miterlimit="10" d="M338.5,316.6c3.1,11.5-13.6,27.9-15.7,29.9
		c-10.3,10.1-21.6,13.4-33.5,16.7c-12.8,3.6-36.8,10-66.4,2.5c-12.7-3.2-33.3-8.4-46.6-26.9c-5-7-10.2-14.2-8.6-20.8"/>
	<path fill="none" stroke="#262665" stroke-width="6" stroke-miterlimit="10" d="M248.5,278.1"/>
	<path fill="none" stroke="#262665" stroke-width="6" stroke-miterlimit="10" d="M219.2,209.9c0.3,0.1,0.6,0.3,0.9,0.4
		c10.7,5.4,19.7,9.9,24.8,16.4c8,10.1,6.7,24.6,6.3,29.6c-1,11.1-5.1,15.2-2.7,17.9c4.3,4.8,22.2-2.9,34-13.2
		c5.7-5,13.5-11.8,15.4-23.3c1.9-11.6-3.3-20.8-4.9-23.7c-0.4-0.7-4.7-7.9-12.5-13.2"/>
	<path fill="none" stroke="#262665" stroke-width="6" stroke-miterlimit="10" d="M341.8,209.4c9.4,5.7,14.5,13.6,19.6,21.3
		c2.2,3.3,5.5,8.5,8.2,16.1c1.8,5.2,5.9,16.9,3.6,30.7c-0.9,5.3-3.1,13.4-5.2,19.7c-2.5,7.5-3.9,10.1-2.8,11
		c2.4,2,14.8-7.1,23.4-17.4c1.5-1.8,8.7-10.6,13.4-24.1c1.9-5.6,3.4-9.9,3.3-15.9c-0.1-5.7-1.5-10.4-3.9-18.2"/>
	<path fill="none" stroke="#262665" stroke-width="6" stroke-miterlimit="10" d="M81.9,237.2c-4.7,5.2-7.3,13.4-7.8,15
		c-2.7,8.6-2.3,16.1-1.7,20.6c0.7,5.2,2.3,17,12.2,26.2c7.6,7,15.8,8.7,23,10.1c2,0.4,7.3,1.4,7.9,0c0.8-1.9-8-4.7-11.3-12.5
		c-2.7-6.5-0.3-13.3,2.5-20.9c1.1-3,4.2-10.7,11.2-18.8c7.6-8.8,16.1-13.8,22-16.6"/>
	<g>
		<g>
			<path fill="none" stroke="#262665" stroke-miterlimit="10" d="M44,254.8"/>
		</g>
	</g>
	<g>
		<g>
			<path fill="none" stroke="#262665" stroke-miterlimit="10" d="M37.9,252.7"/>
		</g>
	</g>
	<path fill="none" stroke="#262665" stroke-width="5" stroke-miterlimit="10" d="M93.7,114.3c5.8-11.1,15.6-26.9,31.9-43.1"/>
	<path fill="none" stroke="#262665" stroke-width="5" stroke-miterlimit="10" d="M102.8,119.4"/>
	<path fill="none" stroke="#262665" stroke-width="5" stroke-miterlimit="10" d="M91.2,147.3"/>
	<path fill="none" stroke="#262665" stroke-width="5" stroke-miterlimit="10" d="M72,196.5c1.5-12.4,4.4-29.5,11.2-49.2"/>
</g>
<g id="Layer_2">
</g>
</svg>
